<svg width="394" height="178" viewBox="0 0 394 178" fill="none"
    xmlns="http://www.w3.org/2000/svg"
    xmlns:xlink="http://www.w3.org/1999/xlink">
    <g filter="url(#filter0_d_312:19531)">
        <rect x="10" y="10" width="374" height="158" rx="10" fill="white"/>
    </g>
    <mask id="mask0_312:19531" style="mask-type:alpha" maskUnits="userSpaceOnUse" x="10" y="10" width="374" height="158">
        <rect x="10" y="10" width="374" height="158" rx="10" fill="white"/>
    </mask>
    <g mask="url(#mask0_312:19531)">
        <rect x="301.443" y="309.892" width="303.881" height="303.881" transform="rotate(-132.779 301.443 309.892)" fill="url(#pattern0)"/>
    </g>
    <path d="M29.751 38.1445H26.7725L26.1035 40H25.1367L27.8516 32.8906H28.6719L31.3916 40H30.4297L29.751 38.1445ZM27.0557 37.373H29.4727L28.2617 34.0479L27.0557 37.373ZM33.8525 37.749H33.1934V40H32.2852V34.7168H33.1934V36.9531H33.7842L35.5615 34.7168H36.6553L34.5654 37.2559L36.8311 40H35.6836L33.8525 37.749ZM37.6855 34.7168H38.5938V39.2627H41.0254V34.7168H41.9287V39.2627H42.5586L42.4707 41.5674H41.6602V40H37.6855V34.7168ZM46.9531 34.7168H47.8564V40H46.9531V36.1475L44.5166 40H43.6133V34.7168H44.5166V38.5742L46.9531 34.7168ZM53.3447 34.7168V40H52.4365V37.9443H51.0742L49.8291 40H48.8525L50.1807 37.8076C49.8421 37.6839 49.5817 37.4935 49.3994 37.2363C49.2204 36.9759 49.1309 36.6732 49.1309 36.3281C49.1309 35.8464 49.3115 35.459 49.6729 35.166C50.0342 34.8698 50.5176 34.7201 51.123 34.7168H53.3447ZM50.0391 36.3379C50.0391 36.5951 50.127 36.8034 50.3027 36.9629C50.4785 37.1191 50.7113 37.1989 51.001 37.2021H52.4365V35.4492H51.1377C50.8024 35.4492 50.5355 35.5322 50.3369 35.6982C50.1383 35.861 50.0391 36.0742 50.0391 36.3379Z" fill="#94A2B9"/>
    <rect x="25" y="117" width="139" height="30" rx="10" fill="#FF6800"/>
    <path d="M45.2617 129.72C45.2617 129.191 45.068 128.772 44.6807 128.462C44.2979 128.147 43.7578 127.99 43.0605 127.99C42.4772 127.99 41.9873 128.152 41.5908 128.476C41.1989 128.795 41.0029 129.191 41.0029 129.665H39.6904C39.6904 129.136 39.834 128.662 40.1211 128.243C40.4128 127.824 40.8184 127.498 41.3379 127.266C41.8574 127.029 42.4316 126.91 43.0605 126.91C44.1725 126.91 45.0361 127.161 45.6514 127.662C46.2666 128.159 46.5742 128.852 46.5742 129.74C46.5742 130.201 46.4329 130.62 46.1504 130.998C45.8678 131.376 45.4736 131.675 44.9678 131.894C46.139 132.285 46.7246 133.062 46.7246 134.225C46.7246 135.118 46.3919 135.826 45.7266 136.351C45.0612 136.875 44.1725 137.137 43.0605 137.137C42.3997 137.137 41.7982 137.021 41.2559 136.788C40.7181 136.551 40.2988 136.216 39.998 135.783C39.6973 135.35 39.5469 134.835 39.5469 134.238H40.8594C40.8594 134.762 41.0667 135.2 41.4814 135.551C41.8962 135.897 42.4225 136.07 43.0605 136.07C43.776 136.07 44.3457 135.904 44.7695 135.571C45.1979 135.239 45.4121 134.799 45.4121 134.252C45.4121 133.085 44.6898 132.491 43.2451 132.468H42.0146V131.388H43.2383C43.9036 131.374 44.4072 131.224 44.749 130.937C45.0908 130.649 45.2617 130.244 45.2617 129.72ZM52.8359 137C52.763 136.854 52.7038 136.594 52.6582 136.221C52.0703 136.831 51.3685 137.137 50.5527 137.137C49.8236 137.137 49.2243 136.932 48.7549 136.521C48.29 136.107 48.0576 135.583 48.0576 134.949C48.0576 134.179 48.3493 133.582 48.9326 133.158C49.5205 132.73 50.3454 132.516 51.4072 132.516H52.6377V131.935C52.6377 131.493 52.5055 131.142 52.2412 130.882C51.9769 130.618 51.5872 130.485 51.0723 130.485C50.6211 130.485 50.2428 130.599 49.9375 130.827C49.6322 131.055 49.4795 131.331 49.4795 131.654H48.208C48.208 131.285 48.3379 130.93 48.5977 130.588C48.862 130.242 49.2174 129.968 49.6641 129.768C50.1152 129.567 50.6097 129.467 51.1475 129.467C51.9997 129.467 52.6673 129.681 53.1504 130.109C53.6335 130.533 53.8841 131.119 53.9023 131.866V135.271C53.9023 135.95 53.9889 136.49 54.1621 136.891V137H52.8359ZM50.7373 136.036C51.1338 136.036 51.5098 135.934 51.8652 135.729C52.2207 135.523 52.4782 135.257 52.6377 134.929V133.411H51.6465C50.097 133.411 49.3223 133.865 49.3223 134.771C49.3223 135.168 49.4544 135.478 49.7188 135.701C49.9831 135.924 50.3226 136.036 50.7373 136.036ZM58.1885 133.849H57.2656V137H55.9941V129.604H57.2656V132.734H58.0928L60.5811 129.604H62.1123L59.1865 133.158L62.3584 137H60.752L58.1885 133.849ZM68.0117 137C67.9388 136.854 67.8796 136.594 67.834 136.221C67.2461 136.831 66.5443 137.137 65.7285 137.137C64.9993 137.137 64.4001 136.932 63.9307 136.521C63.4658 136.107 63.2334 135.583 63.2334 134.949C63.2334 134.179 63.5251 133.582 64.1084 133.158C64.6963 132.73 65.5212 132.516 66.583 132.516H67.8135V131.935C67.8135 131.493 67.6813 131.142 67.417 130.882C67.1527 130.618 66.763 130.485 66.248 130.485C65.7969 130.485 65.4186 130.599 65.1133 130.827C64.8079 131.055 64.6553 131.331 64.6553 131.654H63.3838C63.3838 131.285 63.5137 130.93 63.7734 130.588C64.0378 130.242 64.3932 129.968 64.8398 129.768C65.291 129.567 65.7855 129.467 66.3232 129.467C67.1755 129.467 67.8431 129.681 68.3262 130.109C68.8092 130.533 69.0599 131.119 69.0781 131.866V135.271C69.0781 135.95 69.1647 136.49 69.3379 136.891V137H68.0117ZM65.9131 136.036C66.3096 136.036 66.6855 135.934 67.041 135.729C67.3965 135.523 67.654 135.257 67.8135 134.929V133.411H66.8223C65.2728 133.411 64.498 133.865 64.498 134.771C64.498 135.168 64.6302 135.478 64.8945 135.701C65.1589 135.924 65.4984 136.036 65.9131 136.036ZM75.1279 131.627C75.1279 131.281 74.9958 131.007 74.7314 130.807C74.4671 130.602 74.1048 130.499 73.6445 130.499C73.1979 130.499 72.8242 130.615 72.5234 130.848C72.2272 131.08 72.0791 131.354 72.0791 131.668H70.8213C70.8213 131.025 71.0902 130.499 71.6279 130.089C72.1657 129.679 72.8379 129.474 73.6445 129.474C74.5104 129.474 75.1849 129.66 75.668 130.034C76.151 130.403 76.3926 130.932 76.3926 131.62C76.3926 131.953 76.2923 132.258 76.0918 132.536C75.8913 132.814 75.6064 133.035 75.2373 133.199C76.0986 133.491 76.5293 134.065 76.5293 134.922C76.5293 135.601 76.2673 136.139 75.7432 136.535C75.2191 136.932 74.5195 137.13 73.6445 137.13C72.7923 137.13 72.0882 136.923 71.5322 136.508C70.9808 136.089 70.7051 135.523 70.7051 134.812H71.9629C71.9629 135.173 72.1224 135.482 72.4414 135.742C72.765 135.997 73.166 136.125 73.6445 136.125C74.1276 136.125 74.5173 136.013 74.8135 135.79C75.1097 135.567 75.2578 135.277 75.2578 134.922C75.2578 134.507 75.1325 134.211 74.8818 134.033C74.6357 133.851 74.2507 133.76 73.7266 133.76H72.4619V132.693H73.8359C74.6973 132.671 75.1279 132.315 75.1279 131.627ZM82.7363 137C82.6634 136.854 82.6042 136.594 82.5586 136.221C81.9707 136.831 81.2689 137.137 80.4531 137.137C79.724 137.137 79.1247 136.932 78.6553 136.521C78.1904 136.107 77.958 135.583 77.958 134.949C77.958 134.179 78.2497 133.582 78.833 133.158C79.4209 132.73 80.2458 132.516 81.3076 132.516H82.5381V131.935C82.5381 131.493 82.4059 131.142 82.1416 130.882C81.8773 130.618 81.4876 130.485 80.9727 130.485C80.5215 130.485 80.1432 130.599 79.8379 130.827C79.5326 131.055 79.3799 131.331 79.3799 131.654H78.1084C78.1084 131.285 78.2383 130.93 78.498 130.588C78.7624 130.242 79.1178 129.968 79.5645 129.768C80.0156 129.567 80.5101 129.467 81.0479 129.467C81.9001 129.467 82.5677 129.681 83.0508 130.109C83.5339 130.533 83.7845 131.119 83.8027 131.866V135.271C83.8027 135.95 83.8893 136.49 84.0625 136.891V137H82.7363ZM80.6377 136.036C81.0342 136.036 81.4102 135.934 81.7656 135.729C82.1211 135.523 82.3786 135.257 82.5381 134.929V133.411H81.5469C79.9974 133.411 79.2227 133.865 79.2227 134.771C79.2227 135.168 79.3548 135.478 79.6191 135.701C79.8835 135.924 80.223 136.036 80.6377 136.036ZM91.1719 130.629H88.6904V137H87.4258V130.629H84.9922V129.604H91.1719V130.629ZM93.7832 132.153H95.7041C96.5426 132.162 97.2057 132.381 97.6934 132.81C98.181 133.238 98.4248 133.819 98.4248 134.553C98.4248 135.291 98.1742 135.883 97.6729 136.33C97.1715 136.777 96.4971 137 95.6494 137H92.5186V129.604H93.7832V132.153ZM93.7832 133.186V135.968H95.6631C96.137 135.968 96.5039 135.847 96.7637 135.605C97.0234 135.359 97.1533 135.024 97.1533 134.601C97.1533 134.19 97.0257 133.855 96.7705 133.596C96.5199 133.331 96.1667 133.195 95.7109 133.186H93.7832ZM110.996 133.842C110.873 134.895 110.483 135.708 109.827 136.282C109.175 136.852 108.307 137.137 107.223 137.137C106.047 137.137 105.104 136.715 104.393 135.872C103.686 135.029 103.333 133.901 103.333 132.488V131.531C103.333 130.606 103.497 129.793 103.825 129.091C104.158 128.389 104.627 127.851 105.233 127.478C105.84 127.099 106.541 126.91 107.339 126.91C108.396 126.91 109.244 127.206 109.882 127.799C110.52 128.387 110.891 129.202 110.996 130.246H109.677C109.563 129.453 109.314 128.879 108.932 128.523C108.553 128.168 108.022 127.99 107.339 127.99C106.5 127.99 105.842 128.3 105.363 128.92C104.889 129.54 104.652 130.422 104.652 131.565V132.529C104.652 133.609 104.878 134.468 105.329 135.106C105.78 135.744 106.411 136.063 107.223 136.063C107.952 136.063 108.51 135.899 108.897 135.571C109.289 135.239 109.549 134.662 109.677 133.842H110.996ZM115.665 137.137C114.662 137.137 113.847 136.809 113.218 136.152C112.589 135.492 112.274 134.61 112.274 133.507V133.274C112.274 132.541 112.413 131.887 112.691 131.312C112.974 130.734 113.366 130.283 113.867 129.959C114.373 129.631 114.92 129.467 115.508 129.467C116.469 129.467 117.217 129.784 117.75 130.417C118.283 131.05 118.55 131.957 118.55 133.138V133.664H113.539C113.557 134.393 113.769 134.983 114.175 135.435C114.585 135.881 115.104 136.104 115.733 136.104C116.18 136.104 116.558 136.013 116.868 135.831C117.178 135.649 117.449 135.407 117.682 135.106L118.454 135.708C117.834 136.66 116.905 137.137 115.665 137.137ZM115.508 130.506C114.997 130.506 114.569 130.693 114.223 131.066C113.876 131.436 113.662 131.955 113.58 132.625H117.285V132.529C117.249 131.887 117.076 131.39 116.766 131.039C116.456 130.684 116.036 130.506 115.508 130.506ZM124.805 129.604H126.069V137H124.805V131.606L121.394 137H120.129V129.604H121.394V135.004L124.805 129.604ZM125.146 126.91C125.146 127.462 124.957 127.906 124.579 128.243C124.205 128.576 123.713 128.742 123.103 128.742C122.492 128.742 121.997 128.574 121.619 128.236C121.241 127.899 121.052 127.457 121.052 126.91H122.084C122.084 127.229 122.171 127.48 122.344 127.662C122.517 127.84 122.77 127.929 123.103 127.929C123.422 127.929 123.67 127.84 123.848 127.662C124.03 127.484 124.121 127.234 124.121 126.91H125.146ZM133.685 137H132.413V134.32C131.857 134.466 131.287 134.539 130.704 134.539C129.779 134.539 129.073 134.302 128.585 133.828C128.102 133.354 127.856 132.68 127.847 131.805V129.597H129.111V131.846C129.134 132.949 129.665 133.5 130.704 133.5C131.287 133.5 131.857 133.427 132.413 133.281V129.604H133.685V137ZM140.281 137C140.208 136.854 140.149 136.594 140.104 136.221C139.516 136.831 138.814 137.137 137.998 137.137C137.269 137.137 136.67 136.932 136.2 136.521C135.735 136.107 135.503 135.583 135.503 134.949C135.503 134.179 135.795 133.582 136.378 133.158C136.966 132.73 137.791 132.516 138.853 132.516H140.083V131.935C140.083 131.493 139.951 131.142 139.687 130.882C139.422 130.618 139.033 130.485 138.518 130.485C138.066 130.485 137.688 130.599 137.383 130.827C137.077 131.055 136.925 131.331 136.925 131.654H135.653C135.653 131.285 135.783 130.93 136.043 130.588C136.307 130.242 136.663 129.968 137.109 129.768C137.561 129.567 138.055 129.467 138.593 129.467C139.445 129.467 140.113 129.681 140.596 130.109C141.079 130.533 141.329 131.119 141.348 131.866V135.271C141.348 135.95 141.434 136.49 141.607 136.891V137H140.281ZM138.183 136.036C138.579 136.036 138.955 135.934 139.311 135.729C139.666 135.523 139.924 135.257 140.083 134.929V133.411H139.092C137.542 133.411 136.768 133.865 136.768 134.771C136.768 135.168 136.9 135.478 137.164 135.701C137.428 135.924 137.768 136.036 138.183 136.036ZM146.297 136.104C146.748 136.104 147.142 135.968 147.479 135.694C147.817 135.421 148.004 135.079 148.04 134.669H149.236C149.214 135.093 149.068 135.496 148.799 135.879C148.53 136.262 148.17 136.567 147.719 136.795C147.272 137.023 146.798 137.137 146.297 137.137C145.29 137.137 144.488 136.802 143.891 136.132C143.298 135.457 143.002 134.537 143.002 133.37V133.158C143.002 132.438 143.134 131.798 143.398 131.237C143.663 130.677 144.041 130.242 144.533 129.932C145.03 129.622 145.616 129.467 146.29 129.467C147.119 129.467 147.808 129.715 148.354 130.212C148.906 130.709 149.2 131.354 149.236 132.146H148.04C148.004 131.668 147.821 131.276 147.493 130.971C147.17 130.661 146.769 130.506 146.29 130.506C145.647 130.506 145.148 130.738 144.793 131.203C144.442 131.663 144.267 132.331 144.267 133.206V133.445C144.267 134.298 144.442 134.954 144.793 135.414C145.144 135.874 145.645 136.104 146.297 136.104Z" fill="white"/>
    <path d="M38.0078 79.1465H35.5732V76H27.8564V79.1377H25.3604L25.2197 73.8818H26.1865C26.708 73.4482 27.1094 72.8125 27.3906 71.9746C27.6777 71.1309 27.8711 70.0879 27.9707 68.8457L28.3398 63.2031H36.7246V73.8818H38.2188L38.0078 79.1465ZM29.21 73.8818H34.0879V65.3389H30.8447L30.625 68.7051C30.4492 70.9609 29.9775 72.6865 29.21 73.8818ZM44.9512 76C44.834 75.7715 44.749 75.4873 44.6963 75.1475C44.0811 75.833 43.2812 76.1758 42.2969 76.1758C41.3652 76.1758 40.5918 75.9062 39.9766 75.3672C39.3672 74.8281 39.0625 74.1484 39.0625 73.3281C39.0625 72.3203 39.4346 71.5469 40.1787 71.0078C40.9287 70.4688 42.0098 70.1963 43.4219 70.1904H44.5908V69.6455C44.5908 69.2061 44.4766 68.8545 44.248 68.5908C44.0254 68.3271 43.6709 68.1953 43.1846 68.1953C42.7568 68.1953 42.4199 68.2979 42.1738 68.5029C41.9336 68.708 41.8135 68.9893 41.8135 69.3467H39.2734C39.2734 68.7959 39.4434 68.2861 39.7832 67.8174C40.123 67.3486 40.6035 66.9824 41.2246 66.7188C41.8457 66.4492 42.543 66.3145 43.3164 66.3145C44.4883 66.3145 45.417 66.6104 46.1025 67.2021C46.7939 67.7881 47.1396 68.6143 47.1396 69.6807V73.8027C47.1455 74.7051 47.2715 75.3877 47.5176 75.8506V76H44.9512ZM42.8506 74.2334C43.2256 74.2334 43.5713 74.1514 43.8877 73.9873C44.2041 73.8174 44.4385 73.5918 44.5908 73.3105V71.6758H43.6416C42.3701 71.6758 41.6934 72.1152 41.6113 72.9941L41.6025 73.1436C41.6025 73.46 41.7139 73.7207 41.9365 73.9258C42.1592 74.1309 42.4639 74.2334 42.8506 74.2334ZM57.6514 71.333C57.6514 72.7979 57.3174 73.9727 56.6494 74.8574C55.9873 75.7363 55.0908 76.1758 53.96 76.1758C52.999 76.1758 52.2227 75.8418 51.6309 75.1738V79.6562H49.0908V66.4902H51.4463L51.5342 67.4219C52.1494 66.6836 52.9521 66.3145 53.9424 66.3145C55.1143 66.3145 56.0254 66.748 56.6758 67.6152C57.3262 68.4824 57.6514 69.6777 57.6514 71.2012V71.333ZM55.1113 71.1484C55.1113 70.2637 54.9531 69.5811 54.6367 69.1006C54.3262 68.6201 53.8721 68.3799 53.2744 68.3799C52.4775 68.3799 51.9297 68.6846 51.6309 69.2939V73.1875C51.9414 73.8145 52.4951 74.1279 53.292 74.1279C54.5049 74.1279 55.1113 73.1348 55.1113 71.1484ZM64.9639 66.4902H67.5039V76H64.9639V70.1289L61.7822 76H59.2334V66.4902H61.7822V72.3525L64.9639 66.4902ZM75.2383 73.0029L77.7256 66.4902H80.9072V76H78.3672V70.1641L76.0908 76H74.3857L72.1533 70.2607V76H69.6133V66.4902H72.7686L75.2383 73.0029ZM97.8174 71.7373C97.7178 73.1143 97.208 74.1982 96.2881 74.9893C95.374 75.7803 94.167 76.1758 92.667 76.1758C91.0264 76.1758 89.7344 75.625 88.791 74.5234C87.8535 73.416 87.3848 71.8984 87.3848 69.9707V69.1885C87.3848 67.958 87.6016 66.874 88.0352 65.9365C88.4688 64.999 89.0869 64.2812 89.8896 63.7832C90.6982 63.2793 91.6357 63.0273 92.7021 63.0273C94.1787 63.0273 95.3682 63.4229 96.2705 64.2139C97.1729 65.0049 97.6943 66.1152 97.835 67.5449H95.1982C95.1338 66.7188 94.9023 66.1211 94.5039 65.752C94.1113 65.377 93.5107 65.1895 92.7021 65.1895C91.8232 65.1895 91.1641 65.5059 90.7246 66.1387C90.291 66.7656 90.0684 67.7412 90.0566 69.0654V70.0322C90.0566 71.415 90.2646 72.4258 90.6807 73.0645C91.1025 73.7031 91.7646 74.0225 92.667 74.0225C93.4814 74.0225 94.0879 73.8379 94.4863 73.4688C94.8906 73.0938 95.1221 72.5166 95.1807 71.7373H97.8174ZM103.108 72.4932H102.089V76H99.5488V66.4902H102.089V70.0674H102.994L105.068 66.4902H108.276L105.165 71.0166L108.566 76H105.183L103.108 72.4932ZM115.255 66.4902H117.795V76H115.255V70.1289L112.073 76H109.524V66.4902H112.073V72.3525L115.255 66.4902ZM119.869 73.9521C120.443 73.3428 120.833 72.7393 121.038 72.1416C121.243 71.5439 121.357 70.6973 121.381 69.6016L121.451 66.4902H128.447V73.9521H129.818V78.8564H127.278V76H121.645V78.8564H119.052V73.9521H119.869ZM122.866 73.9521H125.916V68.5908H123.938L123.921 69.7334C123.868 71.4795 123.517 72.8857 122.866 73.9521ZM134.679 72.4932H133.659V76H131.119V66.4902H133.659V70.0674H134.564L136.639 66.4902H139.847L136.735 71.0166L140.137 76H136.753L134.679 72.4932ZM144.646 72.4053L146.403 66.4902H149.128L145.305 77.4766L145.094 77.9775C144.525 79.2197 143.588 79.8408 142.281 79.8408C141.912 79.8408 141.537 79.7852 141.156 79.6738V77.749L141.543 77.7578C142.023 77.7578 142.381 77.6846 142.615 77.5381C142.855 77.3916 143.043 77.1484 143.178 76.8086L143.477 76.0264L140.146 66.4902H142.879L144.646 72.4053ZM160.677 76H158.137V66.209L155.104 67.1494V65.084L160.404 63.1855H160.677V76ZM165.221 69.707L165.959 63.2031H173.131V65.3213H168.042L167.726 68.0723C168.329 67.75 168.971 67.5889 169.65 67.5889C170.869 67.5889 171.824 67.9668 172.516 68.7227C173.207 69.4785 173.553 70.5361 173.553 71.8955C173.553 72.7217 173.377 73.4629 173.025 74.1191C172.68 74.7695 172.182 75.2764 171.531 75.6396C170.881 75.9971 170.113 76.1758 169.229 76.1758C168.455 76.1758 167.737 76.0205 167.075 75.71C166.413 75.3936 165.889 74.9512 165.502 74.3828C165.121 73.8145 164.919 73.167 164.896 72.4404H167.409C167.462 72.9736 167.646 73.3896 167.963 73.6885C168.285 73.9814 168.704 74.1279 169.22 74.1279C169.794 74.1279 170.236 73.9229 170.547 73.5127C170.857 73.0967 171.013 72.5107 171.013 71.7549C171.013 71.0283 170.834 70.4717 170.477 70.085C170.119 69.6982 169.612 69.5049 168.956 69.5049C168.353 69.5049 167.863 69.6631 167.488 69.9795L167.242 70.208L165.221 69.707ZM183.792 70.709C183.792 72.4785 183.426 73.832 182.693 74.7695C181.961 75.707 180.889 76.1758 179.477 76.1758C178.082 76.1758 177.016 75.7158 176.277 74.7959C175.539 73.876 175.161 72.5576 175.144 70.8408V68.4854C175.144 66.6982 175.513 65.3418 176.251 64.416C176.995 63.4902 178.064 63.0273 179.459 63.0273C180.854 63.0273 181.92 63.4873 182.658 64.4072C183.396 65.3213 183.774 66.6367 183.792 68.3535V70.709ZM181.252 68.125C181.252 67.0645 181.105 66.2939 180.812 65.8135C180.525 65.3271 180.074 65.084 179.459 65.084C178.861 65.084 178.419 65.3154 178.132 65.7783C177.851 66.2354 177.701 66.9531 177.684 67.9316V71.043C177.684 72.0859 177.824 72.8623 178.105 73.3721C178.393 73.876 178.85 74.1279 179.477 74.1279C180.098 74.1279 180.546 73.8848 180.821 73.3984C181.097 72.9121 181.24 72.168 181.252 71.166V68.125ZM194.181 71.333C194.181 72.7979 193.847 73.9727 193.179 74.8574C192.517 75.7363 191.62 76.1758 190.489 76.1758C189.528 76.1758 188.752 75.8418 188.16 75.1738V79.6562H185.62V66.4902H187.976L188.063 67.4219C188.679 66.6836 189.481 66.3145 190.472 66.3145C191.644 66.3145 192.555 66.748 193.205 67.6152C193.855 68.4824 194.181 69.6777 194.181 71.2012V71.333ZM191.641 71.1484C191.641 70.2637 191.482 69.5811 191.166 69.1006C190.855 68.6201 190.401 68.3799 189.804 68.3799C189.007 68.3799 188.459 68.6846 188.16 69.2939V73.1875C188.471 73.8145 189.024 74.1279 189.821 74.1279C191.034 74.1279 191.641 73.1348 191.641 71.1484ZM36.5576 97H33.9209V91.5156H28.7793V97H26.1426V84.2031H28.7793V89.3887H33.9209V84.2031H36.5576V97ZM44.2129 97C44.0957 96.7715 44.0107 96.4873 43.958 96.1475C43.3428 96.833 42.543 97.1758 41.5586 97.1758C40.627 97.1758 39.8535 96.9062 39.2383 96.3672C38.6289 95.8281 38.3242 95.1484 38.3242 94.3281C38.3242 93.3203 38.6963 92.5469 39.4404 92.0078C40.1904 91.4688 41.2715 91.1963 42.6836 91.1904H43.8525V90.6455C43.8525 90.2061 43.7383 89.8545 43.5098 89.5908C43.2871 89.3271 42.9326 89.1953 42.4463 89.1953C42.0186 89.1953 41.6816 89.2979 41.4355 89.5029C41.1953 89.708 41.0752 89.9893 41.0752 90.3467H38.5352C38.5352 89.7959 38.7051 89.2861 39.0449 88.8174C39.3848 88.3486 39.8652 87.9824 40.4863 87.7188C41.1074 87.4492 41.8047 87.3145 42.5781 87.3145C43.75 87.3145 44.6787 87.6104 45.3643 88.2021C46.0557 88.7881 46.4014 89.6143 46.4014 90.6807V94.8027C46.4072 95.7051 46.5332 96.3877 46.7793 96.8506V97H44.2129ZM42.1123 95.2334C42.4873 95.2334 42.833 95.1514 43.1494 94.9873C43.4658 94.8174 43.7002 94.5918 43.8525 94.3105V92.6758H42.9033C41.6318 92.6758 40.9551 93.1152 40.873 93.9941L40.8643 94.1436C40.8643 94.46 40.9756 94.7207 41.1982 94.9258C41.4209 95.1309 41.7256 95.2334 42.1123 95.2334ZM63.4258 97H60.7803V86.3389H55.6562V97H53.0195V84.2031H63.4258V97ZM69.9561 97.1758C68.5615 97.1758 67.4248 96.748 66.5459 95.8926C65.6729 95.0371 65.2363 93.8975 65.2363 92.4736V92.2275C65.2363 91.2725 65.4209 90.4199 65.79 89.6699C66.1592 88.9141 66.6807 88.334 67.3545 87.9297C68.0342 87.5195 68.8076 87.3145 69.6748 87.3145C70.9756 87.3145 71.998 87.7246 72.7422 88.5449C73.4922 89.3652 73.8672 90.5283 73.8672 92.0342V93.0713H67.8115C67.8936 93.6924 68.1396 94.1904 68.5498 94.5654C68.9658 94.9404 69.4902 95.1279 70.123 95.1279C71.1016 95.1279 71.8662 94.7734 72.417 94.0645L73.665 95.4619C73.2842 96.001 72.7686 96.4229 72.1182 96.7275C71.4678 97.0264 70.7471 97.1758 69.9561 97.1758ZM69.666 89.3711C69.1621 89.3711 68.752 89.541 68.4355 89.8809C68.125 90.2207 67.9258 90.707 67.8379 91.3398H71.3711V91.1377C71.3594 90.5752 71.207 90.1416 70.9141 89.8369C70.6211 89.5264 70.2051 89.3711 69.666 89.3711ZM83.8779 92.333C83.8779 93.7979 83.5439 94.9727 82.876 95.8574C82.2139 96.7363 81.3174 97.1758 80.1865 97.1758C79.2256 97.1758 78.4492 96.8418 77.8574 96.1738V100.656H75.3174V87.4902H77.6729L77.7607 88.4219C78.376 87.6836 79.1787 87.3145 80.1689 87.3145C81.3408 87.3145 82.252 87.748 82.9023 88.6152C83.5527 89.4824 83.8779 90.6777 83.8779 92.2012V92.333ZM81.3379 92.1484C81.3379 91.2637 81.1797 90.5811 80.8633 90.1006C80.5527 89.6201 80.0986 89.3799 79.501 89.3799C78.7041 89.3799 78.1562 89.6846 77.8574 90.2939V94.1875C78.168 94.8145 78.7217 95.1279 79.5186 95.1279C80.7314 95.1279 81.3379 94.1348 81.3379 92.1484ZM85.627 97V87.4902H89.5996C90.8945 87.4902 91.8877 87.7188 92.5791 88.1758C93.2705 88.6328 93.6162 89.2891 93.6162 90.1445C93.6162 90.584 93.4697 90.9795 93.1768 91.3311C92.8896 91.6768 92.4678 91.9434 91.9111 92.1309C92.5908 92.2598 93.124 92.5146 93.5107 92.8955C93.9033 93.2705 94.0996 93.7334 94.0996 94.2842C94.0996 95.1689 93.7656 95.8428 93.0977 96.3057C92.4355 96.7686 91.4717 97 90.2061 97H85.627ZM88.167 93.0537V94.9697H90.2148C91.1113 94.9697 91.5596 94.6562 91.5596 94.0293C91.5596 93.3906 91.1318 93.0654 90.2764 93.0537H88.167ZM88.167 91.3486H89.7402C90.6309 91.3369 91.0762 91.0498 91.0762 90.4873C91.0762 90.1416 90.9531 89.8955 90.707 89.749C90.4668 89.6025 90.0977 89.5293 89.5996 89.5293H88.167V91.3486ZM98.3711 90.2764H100.19C101.011 90.2764 101.731 90.4141 102.353 90.6895C102.974 90.9648 103.448 91.3604 103.776 91.876C104.11 92.3857 104.277 92.9805 104.277 93.6602C104.277 94.6621 103.905 95.4707 103.161 96.0859C102.423 96.6953 101.415 97 100.138 97H95.8223V87.4902H98.3711V90.2764ZM108.32 97H105.78V87.4902H108.32V97ZM98.3711 92.3154V94.9697H100.173C100.677 94.9697 101.063 94.8525 101.333 94.6182C101.603 94.3838 101.737 94.0645 101.737 93.6602C101.737 93.25 101.605 92.9248 101.342 92.6846C101.078 92.4385 100.688 92.3154 100.173 92.3154H98.3711ZM116.292 87.4902H118.832V97H116.292V91.1289L113.11 97H110.562V87.4902H113.11V93.3525L116.292 87.4902ZM117.786 83.6318C117.786 84.4111 117.505 85.041 116.942 85.5215C116.386 86.002 115.653 86.2422 114.745 86.2422C113.837 86.2422 113.102 86.0049 112.539 85.5303C111.982 85.0557 111.704 84.4229 111.704 83.6318H113.506C113.506 84.001 113.614 84.2881 113.831 84.4932C114.054 84.6924 114.358 84.792 114.745 84.792C115.126 84.792 115.425 84.6924 115.642 84.4932C115.858 84.2881 115.967 84.001 115.967 83.6318H117.786ZM131.734 87.7275C131.734 87.2412 131.544 86.8604 131.163 86.585C130.782 86.3037 130.278 86.1631 129.651 86.1631C129.089 86.1631 128.62 86.3037 128.245 86.585C127.876 86.8604 127.691 87.2207 127.691 87.666H125.055C125.055 86.9746 125.248 86.3535 125.635 85.8027C126.027 85.2461 126.581 84.8125 127.296 84.502C128.017 84.1914 128.802 84.0361 129.651 84.0361C131.128 84.0361 132.285 84.3525 133.123 84.9854C133.961 85.6182 134.38 86.5146 134.38 87.6748C134.38 88.2432 134.207 88.7705 133.861 89.2568C133.521 89.7432 133.035 90.1328 132.402 90.4258C133.105 90.6719 133.645 91.0469 134.02 91.5508C134.395 92.0488 134.582 92.6699 134.582 93.4141C134.582 94.5625 134.131 95.4766 133.229 96.1562C132.332 96.8301 131.14 97.167 129.651 97.167C128.72 97.167 127.882 97.0088 127.138 96.6924C126.394 96.3701 125.828 95.9336 125.441 95.3828C125.061 94.8262 124.87 94.1816 124.87 93.4492H127.524C127.524 93.9062 127.724 94.29 128.122 94.6006C128.521 94.9053 129.03 95.0576 129.651 95.0576C130.354 95.0576 130.908 94.8994 131.312 94.583C131.723 94.2666 131.928 93.8652 131.928 93.3789C131.928 92.7109 131.746 92.2334 131.383 91.9463C131.02 91.6533 130.489 91.5068 129.792 91.5068H128.219V89.4414H129.845C131.104 89.4238 131.734 88.8525 131.734 87.7275ZM141.877 97C141.76 96.7715 141.675 96.4873 141.622 96.1475C141.007 96.833 140.207 97.1758 139.223 97.1758C138.291 97.1758 137.518 96.9062 136.902 96.3672C136.293 95.8281 135.988 95.1484 135.988 94.3281C135.988 93.3203 136.36 92.5469 137.104 92.0078C137.854 91.4688 138.936 91.1963 140.348 91.1904H141.517V90.6455C141.517 90.2061 141.402 89.8545 141.174 89.5908C140.951 89.3271 140.597 89.1953 140.11 89.1953C139.683 89.1953 139.346 89.2979 139.1 89.5029C138.859 89.708 138.739 89.9893 138.739 90.3467H136.199C136.199 89.7959 136.369 89.2861 136.709 88.8174C137.049 88.3486 137.529 87.9824 138.15 87.7188C138.771 87.4492 139.469 87.3145 140.242 87.3145C141.414 87.3145 142.343 87.6104 143.028 88.2021C143.72 88.7881 144.065 89.6143 144.065 90.6807V94.8027C144.071 95.7051 144.197 96.3877 144.443 96.8506V97H141.877ZM139.776 95.2334C140.151 95.2334 140.497 95.1514 140.813 94.9873C141.13 94.8174 141.364 94.5918 141.517 94.3105V92.6758H140.567C139.296 92.6758 138.619 93.1152 138.537 93.9941L138.528 94.1436C138.528 94.46 138.64 94.7207 138.862 94.9258C139.085 95.1309 139.39 95.2334 139.776 95.2334ZM149.743 93.4932H148.724V97H146.184V87.4902H148.724V91.0674H149.629L151.703 87.4902H154.911L151.8 92.0166L155.201 97H151.817L149.743 93.4932ZM161.67 97C161.553 96.7715 161.468 96.4873 161.415 96.1475C160.8 96.833 160 97.1758 159.016 97.1758C158.084 97.1758 157.311 96.9062 156.695 96.3672C156.086 95.8281 155.781 95.1484 155.781 94.3281C155.781 93.3203 156.153 92.5469 156.897 92.0078C157.647 91.4688 158.729 91.1963 160.141 91.1904H161.31V90.6455C161.31 90.2061 161.195 89.8545 160.967 89.5908C160.744 89.3271 160.39 89.1953 159.903 89.1953C159.476 89.1953 159.139 89.2979 158.893 89.5029C158.652 89.708 158.532 89.9893 158.532 90.3467H155.992C155.992 89.7959 156.162 89.2861 156.502 88.8174C156.842 88.3486 157.322 87.9824 157.943 87.7188C158.564 87.4492 159.262 87.3145 160.035 87.3145C161.207 87.3145 162.136 87.6104 162.821 88.2021C163.513 88.7881 163.858 89.6143 163.858 90.6807V94.8027C163.864 95.7051 163.99 96.3877 164.236 96.8506V97H161.67ZM159.569 95.2334C159.944 95.2334 160.29 95.1514 160.606 94.9873C160.923 94.8174 161.157 94.5918 161.31 94.3105V92.6758H160.36C159.089 92.6758 158.412 93.1152 158.33 93.9941L158.321 94.1436C158.321 94.46 158.433 94.7207 158.655 94.9258C158.878 95.1309 159.183 95.2334 159.569 95.2334ZM170.802 90.2939C170.802 89.96 170.69 89.7021 170.468 89.5205C170.251 89.333 169.94 89.2393 169.536 89.2393C169.12 89.2393 168.78 89.3271 168.517 89.5029C168.259 89.6729 168.13 89.916 168.13 90.2324H165.59C165.59 89.3711 165.947 88.6709 166.662 88.1318C167.377 87.5928 168.291 87.3232 169.404 87.3232C170.629 87.3232 171.59 87.5635 172.287 88.0439C172.99 88.5244 173.342 89.207 173.342 90.0918C173.342 90.5137 173.213 90.9033 172.955 91.2607C172.703 91.6123 172.346 91.8936 171.883 92.1045C172.967 92.4854 173.509 93.2207 173.509 94.3105C173.509 95.1836 173.134 95.8809 172.384 96.4023C171.64 96.918 170.646 97.1758 169.404 97.1758C168.25 97.1758 167.301 96.9062 166.557 96.3672C165.812 95.8281 165.44 95.1016 165.44 94.1875H167.98C167.98 94.5098 168.124 94.7705 168.411 94.9697C168.698 95.1689 169.073 95.2686 169.536 95.2686C169.987 95.2686 170.339 95.1631 170.591 94.9521C170.843 94.7412 170.969 94.4658 170.969 94.126C170.969 93.71 170.849 93.4141 170.608 93.2383C170.368 93.0566 170.008 92.9658 169.527 92.9658H168.147V91.3135H169.615C170.406 91.29 170.802 90.9502 170.802 90.2939Z" fill="#2C2C2C"/>
    <defs>
        <filter id="filter0_d_312:19531" x="0" y="0" width="394" height="178" filterUnits="userSpaceOnUse" color-interpolation-filters="sRGB">
            <feFlood flood-opacity="0" result="BackgroundImageFix"/>
            <feColorMatrix in="SourceAlpha" type="matrix" values="0 0 0 0 0 0 0 0 0 0 0 0 0 0 0 0 0 0 127 0" result="hardAlpha"/>
            <feOffset/>
            <feGaussianBlur stdDeviation="5"/>
            <feComposite in2="hardAlpha" operator="out"/>
            <feColorMatrix type="matrix" values="0 0 0 0 0 0 0 0 0 0 0 0 0 0 0 0 0 0 0.06 0"/>
            <feBlend mode="normal" in2="BackgroundImageFix" result="effect1_dropShadow_312:19531"/>
            <feBlend mode="normal" in="SourceGraphic" in2="effect1_dropShadow_312:19531" result="shape"/>
        </filter>
        <pattern id="pattern0" patternContentUnits="objectBoundingBox" width="1" height="1">
            <use xlink:href="#image0_312:19531" transform="scale(0.0004)"/>
        </pattern>

    </defs>
</svg>
