<svg width="16" height="24" viewBox="0 0 16 24" fill="none" xmlns="http://www.w3.org/2000/svg">
  <path
    d="M10.6878 23.6894C15.2548 22.2944 16.9281 17.0116 15.1614 12.9186C13.768 9.69066 9.87002 4.10602 11.7205 0.343524C11.8145 0.152407 11.6325 -0.0567978 11.4317 0.0141532C9.82344 0.582615 5.53262 2.60518 6.86369 7.68672C6.86369 7.68672 5.63074 6.2264 4.53426 5.7667C4.37186 5.69862 4.19573 5.82787 4.20908 6.00354C4.4418 9.07578 2.25668 10.7212 0.992762 13.3159C-0.14028 15.6419 0.344889 17.9123 1.50813 19.9366C2.64816 21.9205 4.54016 23.2837 6.66426 23.7855L8.10052 23.627L9.21733 23.966C9.65903 23.9254 10.1019 23.8472 10.5418 23.7296C10.5902 23.7166 10.6389 23.7032 10.6878 23.6894V23.6894Z"
    fill="#FCDF84" />
  <path
    d="M15.1615 12.9188C13.7681 9.69081 9.87017 4.10618 11.7206 0.343677C11.8146 0.15256 11.6327 -0.0566453 11.4319 0.0143057C10.6408 0.29384 9.20134 0.925568 8.10059 2.09944V23.6272L9.2174 23.9662C9.6591 23.9256 10.102 23.8474 10.5419 23.7297C10.5904 23.7168 10.6391 23.7033 10.6879 23.6895C15.2549 22.2945 16.9282 17.0117 15.1615 12.9188V12.9188Z"
    fill="#FBBE82" />
  <path
    d="M11.261 12.6422C10.8607 13.3509 10.0729 13.4422 10.0729 13.4422C11.5574 9.11241 9.55192 6.87381 8.51234 6.05298C8.34211 5.91861 8.09844 6.06292 8.13275 6.27709C8.55434 8.90771 4.53761 11.5303 4.23953 14.1224C4.02528 15.9854 5.0557 17.6681 6.66428 18.3384C7.50987 18.5382 8.39218 18.6014 9.27852 18.513C11.6748 17.8736 12.4958 15.0458 11.6888 12.6801C11.6234 12.4885 11.3606 12.4659 11.261 12.6422Z"
    fill="#FBBE82" />
  <path
    d="M11.6886 12.6792C11.6232 12.4876 11.3604 12.4651 11.2608 12.6413C10.8605 13.35 10.0727 13.4413 10.0727 13.4413C11.5572 9.1115 9.55173 6.87289 8.51215 6.05207C8.34192 5.9177 8.09825 6.062 8.13256 6.27618C8.18472 6.60182 8.16873 6.92731 8.10034 7.25265V18.5412C8.49026 18.5606 8.88391 18.5514 9.27833 18.512C11.6747 17.8728 12.4957 15.045 11.6886 12.6792Z"
    fill="#FA9274" />
</svg>