<svg width="29" height="28" viewBox="0 0 29 28" fill="none" xmlns="http://www.w3.org/2000/svg">
<path fill-rule="evenodd" clip-rule="evenodd" d="M20.6795 11.0717H26.2678C26.9095 11.0717 27.4345 11.5967 27.4345 12.2383L27.3995 12.5533L24.4362 23.3683C24.1562 24.3483 23.2578 25.0717 22.1845 25.0717H7.01782C5.94449 25.0717 5.04616 24.3483 4.77782 23.3683L1.81449 12.5533C1.77949 12.4483 1.76782 12.3433 1.76782 12.2383C1.76782 11.5967 2.29282 11.0717 2.93449 11.0717H8.52282L13.6328 3.43001C13.8545 3.09168 14.2278 2.92834 14.6012 2.92834C14.9745 2.92834 15.3478 3.09168 15.5695 3.41834L20.6795 11.0717ZM17.8678 11.0717L14.6012 6.17168L11.3345 11.0717H17.8678ZM22.1845 22.7383L7.02949 22.75L4.46282 13.405H24.7512L22.1845 22.7383ZM12.2678 18.0717C12.2678 16.7883 13.3178 15.7383 14.6012 15.7383C15.8845 15.7383 16.9345 16.7883 16.9345 18.0717C16.9345 19.355 15.8845 20.405 14.6012 20.405C13.3178 20.405 12.2678 19.355 12.2678 18.0717Z" fill="#2C2C2C"/>
</svg>
