<svg width="46" height="38" viewBox="0 0 46 38" fill="none" xmlns="http://www.w3.org/2000/svg">
<path d="M38.8591 4.84318L8.22144 4.73047C3.40948 5.42651 0.366211 6.454 0.366211 7.59963C0.366211 9.69836 10.5748 11.4002 23.1667 11.4002C35.7601 11.4002 45.9672 9.69836 45.9672 7.59963C45.9673 6.5145 43.2373 5.53512 38.8591 4.84318Z" fill="#CBD0D8"/>
<path d="M10.8163 10.4496C10.8163 12.0241 9.54044 13.3 7.96669 13.3C6.39284 13.3 5.11694 12.0241 5.11694 10.4496C5.11694 8.87575 6.39284 7.59985 7.96669 7.59985C9.54044 7.59985 10.8163 8.87575 10.8163 10.4496Z" fill="#FB6D51"/>
<path opacity="0.2" d="M7.96671 9.50008C7.96671 10.0242 7.54144 10.4495 7.01656 10.4495C6.49239 10.4495 6.06641 10.0242 6.06641 9.50008C6.06641 8.9752 6.49239 8.54993 7.01656 8.54993C7.54135 8.54993 7.96671 8.9752 7.96671 9.50008Z" fill="white"/>
<path d="M14.6169 10.4496C14.6169 12.0241 13.341 13.3 11.7665 13.3C10.1926 13.3 8.91675 12.0241 8.91675 10.4496C8.91675 8.87575 10.1926 7.59985 11.7665 7.59985C13.341 7.59985 14.6169 8.87575 14.6169 10.4496Z" fill="#E8563F"/>
<path opacity="0.2" d="M11.7665 9.50008C11.7665 10.0242 11.3413 10.4495 10.8164 10.4495C10.2923 10.4495 9.86694 10.0242 9.86694 9.50008C9.86694 8.9752 10.2922 8.54993 10.8164 8.54993C11.3413 8.54993 11.7665 8.9752 11.7665 9.50008Z" fill="white"/>
<path d="M18.4169 10.4496C18.4169 12.0241 17.141 13.3 15.5672 13.3C13.9927 13.3 12.7168 12.0241 12.7168 10.4496C12.7168 8.87575 13.9927 7.59985 15.5672 7.59985C17.141 7.59985 18.4169 8.87575 18.4169 10.4496Z" fill="#FB6D51"/>
<path opacity="0.2" d="M15.5671 9.50008C15.5671 10.0242 15.1418 10.4495 14.6169 10.4495C14.092 10.4495 13.6667 10.0242 13.6667 9.50008C13.6667 8.9752 14.092 8.54993 14.6169 8.54993C15.1418 8.54993 15.5671 8.9752 15.5671 9.50008Z" fill="white"/>
<path d="M22.2167 10.4496C22.2167 12.0241 20.9408 13.3 19.3671 13.3C17.7932 13.3 16.5166 12.0241 16.5166 10.4496C16.5166 8.87575 17.7932 7.59985 19.3671 7.59985C20.9408 7.59985 22.2167 8.87575 22.2167 10.4496Z" fill="#E8563F"/>
<path opacity="0.2" d="M19.3669 9.50008C19.3669 10.0242 18.9416 10.4495 18.4167 10.4495C17.8918 10.4495 17.4666 10.0242 17.4666 9.50008C17.4666 8.9752 17.8918 8.54993 18.4167 8.54993C18.9416 8.54993 19.3669 8.9752 19.3669 9.50008Z" fill="white"/>
<path d="M26.018 10.4496C26.018 12.0241 24.7413 13.3 23.1669 13.3C21.593 13.3 20.3171 12.0241 20.3171 10.4496C20.3171 8.87575 21.593 7.59985 23.1669 7.59985C24.7413 7.59985 26.018 8.87575 26.018 10.4496Z" fill="#FB6D51"/>
<path opacity="0.2" d="M23.1669 9.50008C23.1669 10.0242 22.7417 10.4495 22.2168 10.4495C21.6927 10.4495 21.2673 10.0242 21.2673 9.50008C21.2673 8.9752 21.6926 8.54993 22.2168 8.54993C22.7416 8.54993 23.1669 8.9752 23.1669 9.50008Z" fill="white"/>
<path d="M29.8171 10.4496C29.8171 12.0241 28.5404 13.3 26.9673 13.3C25.3928 13.3 24.1169 12.0241 24.1169 10.4496C24.1169 8.87575 25.3928 7.59985 26.9673 7.59985C28.5404 7.59985 29.8171 8.87575 29.8171 10.4496Z" fill="#E8563F"/>
<path opacity="0.2" d="M26.9672 9.50008C26.9672 10.0242 26.5412 10.4495 26.0178 10.4495C25.4915 10.4495 25.0669 10.0242 25.0669 9.50008C25.0669 8.9752 25.4915 8.54993 26.0178 8.54993C26.5412 8.54993 26.9672 8.9752 26.9672 9.50008Z" fill="white"/>
<path d="M33.6161 10.4496C33.6161 12.0241 32.341 13.3 30.7679 13.3C29.1934 13.3 27.9167 12.0241 27.9167 10.4496C27.9167 8.87575 29.1934 7.59985 30.7679 7.59985C32.341 7.59985 33.6161 8.87575 33.6161 10.4496Z" fill="#FB6D51"/>
<path opacity="0.2" d="M30.7679 9.50008C30.7679 10.0242 30.342 10.4495 29.8171 10.4495C29.2922 10.4495 28.8662 10.0242 28.8662 9.50008C28.8662 8.9752 29.2922 8.54993 29.8171 8.54993C30.342 8.54993 30.7679 8.9752 30.7679 9.50008Z" fill="white"/>
<path d="M37.4169 10.4496C37.4169 12.0241 36.1417 13.3 34.5672 13.3C32.9927 13.3 31.7175 12.0241 31.7175 10.4496C31.7175 8.87575 32.9927 7.59985 34.5672 7.59985C36.1417 7.59985 37.4169 8.87575 37.4169 10.4496Z" fill="#E8563F"/>
<path opacity="0.2" d="M34.5672 9.50008C34.5672 10.0242 34.1426 10.4495 33.6163 10.4495C33.093 10.4495 32.667 10.0242 32.667 9.50008C32.667 8.9752 33.093 8.54993 33.6163 8.54993C34.1426 8.54993 34.5672 8.9752 34.5672 9.50008Z" fill="white"/>
<path d="M12.7168 6.64955C12.7168 8.22401 11.4409 9.5 9.86706 9.5C8.29259 9.5 7.0166 8.2241 7.0166 6.64955C7.0166 5.0757 8.2925 3.7998 9.86706 3.7998C11.4409 3.7998 12.7168 5.07579 12.7168 6.64955Z" fill="#FB6D51"/>
<path opacity="0.2" d="M9.8671 5.69956C9.8671 6.22444 9.44183 6.64971 8.91695 6.64971C8.39207 6.64971 7.9668 6.22444 7.9668 5.69956C7.9668 5.17539 8.39207 4.75012 8.91695 4.75012C9.44183 4.75012 9.8671 5.17539 9.8671 5.69956Z" fill="white"/>
<path d="M16.5166 6.64955C16.5166 8.22401 15.2407 9.5 13.6669 9.5C12.093 9.5 10.8164 8.2241 10.8164 6.64955C10.8164 5.0757 12.093 3.7998 13.6669 3.7998C15.2407 3.7998 16.5166 5.07579 16.5166 6.64955Z" fill="#E8563F"/>
<path opacity="0.2" d="M13.6669 5.69956C13.6669 6.22444 13.2416 6.64971 12.7168 6.64971C12.1926 6.64971 11.7666 6.22444 11.7666 5.69956C11.7666 5.17539 12.1926 4.75012 12.7168 4.75012C13.2415 4.75003 13.6669 5.17539 13.6669 5.69956Z" fill="white"/>
<path d="M20.3171 6.64955C20.3171 8.22401 19.0412 9.5 17.4666 9.5C15.8928 9.5 14.6169 8.2241 14.6169 6.64955C14.6169 5.0757 15.8928 3.7998 17.4666 3.7998C19.0412 3.7998 20.3171 5.07579 20.3171 6.64955Z" fill="#FB6D51"/>
<path opacity="0.2" d="M17.4667 5.69956C17.4667 6.22444 17.0415 6.64971 16.5166 6.64971C15.9924 6.64971 15.5671 6.22444 15.5671 5.69956C15.5671 5.17539 15.9924 4.75012 16.5166 4.75012C17.0415 4.75003 17.4667 5.17539 17.4667 5.69956Z" fill="white"/>
<path d="M24.1169 6.64955C24.1169 8.22401 22.841 9.5 21.2672 9.5C19.6927 9.5 18.4167 8.2241 18.4167 6.64955C18.4167 5.0757 19.6926 3.7998 21.2672 3.7998C22.841 3.7998 24.1169 5.07579 24.1169 6.64955Z" fill="#E8563F"/>
<path opacity="0.2" d="M21.2672 5.69956C21.2672 6.22444 20.842 6.64971 20.3171 6.64971C19.7922 6.64971 19.3669 6.22444 19.3669 5.69956C19.3669 5.17539 19.7922 4.75012 20.3171 4.75012C20.842 4.75012 21.2672 5.17539 21.2672 5.69956Z" fill="white"/>
<path d="M27.9169 6.64955C27.9169 8.22401 26.6417 9.5 25.0672 9.5C23.4934 9.5 22.2168 8.2241 22.2168 6.64955C22.2168 5.0757 23.4934 3.7998 25.0672 3.7998C26.6417 3.7998 27.9169 5.07579 27.9169 6.64955Z" fill="#FB6D51"/>
<path opacity="0.2" d="M25.0672 5.69956C25.0672 6.22444 24.6426 6.64971 24.1171 6.64971C23.5923 6.64971 23.167 6.22444 23.167 5.69956C23.167 5.17539 23.5923 4.75012 24.1171 4.75012C24.6426 4.75003 25.0672 5.17539 25.0672 5.69956Z" fill="white"/>
<path d="M31.7176 6.64955C31.7176 8.22401 30.441 9.5 28.8665 9.5C27.2933 9.5 26.0181 8.2241 26.0181 6.64955C26.0181 5.0757 27.2933 3.7998 28.8665 3.7998C30.4409 3.7998 31.7176 5.07579 31.7176 6.64955Z" fill="#E8563F"/>
<path opacity="0.2" d="M28.8664 5.69956C28.8664 6.22444 28.4418 6.64971 27.917 6.64971C27.3935 6.64971 26.9675 6.22444 26.9675 5.69956C26.9675 5.17539 27.3935 4.75012 27.917 4.75012C28.4418 4.75003 28.8664 5.17539 28.8664 5.69956Z" fill="white"/>
<path d="M35.5179 6.64955C35.5179 8.22401 34.2413 9.5 32.6668 9.5C31.0937 9.5 29.8171 8.2241 29.8171 6.64955C29.8171 5.0757 31.0937 3.7998 32.6668 3.7998C34.2413 3.7998 35.5179 5.07579 35.5179 6.64955Z" fill="#FB6D51"/>
<path opacity="0.2" d="M32.6669 5.69956C32.6669 6.22444 32.2409 6.64971 31.7174 6.64971C31.1925 6.64971 30.7681 6.22444 30.7681 5.69956C30.7681 5.17539 31.1926 4.75012 31.7174 4.75012C32.2409 4.75003 32.6669 5.17539 32.6669 5.69956Z" fill="white"/>
<path d="M18.4169 2.84974C18.4169 4.42359 17.141 5.69948 15.5672 5.69948C13.9927 5.69948 12.7168 4.42359 12.7168 2.84974C12.7168 1.2759 13.9927 0 15.5672 0C17.141 0 18.4169 1.2759 18.4169 2.84974Z" fill="#FB6D51"/>
<path opacity="0.2" d="M15.5671 1.89949C15.5671 2.42437 15.1418 2.84964 14.6169 2.84964C14.092 2.84964 13.6667 2.42437 13.6667 1.89949C13.6667 1.37541 14.092 0.949341 14.6169 0.949341C15.1418 0.949341 15.5671 1.37532 15.5671 1.89949Z" fill="white"/>
<path d="M22.2167 2.84974C22.2167 4.42359 20.9408 5.69948 19.3671 5.69948C17.7932 5.69948 16.5166 4.42359 16.5166 2.84974C16.5166 1.2759 17.7932 0 19.3671 0C20.9408 0 22.2167 1.2759 22.2167 2.84974Z" fill="#E8563F"/>
<path opacity="0.2" d="M19.3669 1.89949C19.3669 2.42437 18.9416 2.84964 18.4167 2.84964C17.8918 2.84964 17.4666 2.42437 17.4666 1.89949C17.4666 1.37541 17.8918 0.949341 18.4167 0.949341C18.9416 0.949341 19.3669 1.37532 19.3669 1.89949Z" fill="white"/>
<path d="M26.018 2.84974C26.018 4.42359 24.7413 5.69948 23.1669 5.69948C21.593 5.69948 20.3171 4.42359 20.3171 2.84974C20.3171 1.2759 21.593 0 23.1669 0C24.7413 0 26.018 1.2759 26.018 2.84974Z" fill="#FB6D51"/>
<path opacity="0.2" d="M23.1669 1.89949C23.1669 2.42437 22.7417 2.84964 22.2168 2.84964C21.6927 2.84964 21.2673 2.42437 21.2673 1.89949C21.2673 1.37541 21.6926 0.949341 22.2168 0.949341C22.7416 0.949341 23.1669 1.37532 23.1669 1.89949Z" fill="white"/>
<path d="M29.8171 2.84974C29.8171 4.42359 28.5404 5.69948 26.9673 5.69948C25.3928 5.69948 24.1169 4.42359 24.1169 2.84974C24.1169 1.2759 25.3928 0 26.9673 0C28.5404 0 29.8171 1.2759 29.8171 2.84974Z" fill="#E8563F"/>
<path opacity="0.2" d="M26.9672 1.89949C26.9672 2.42437 26.5412 2.84964 26.0178 2.84964C25.4915 2.84964 25.0669 2.42437 25.0669 1.89949C25.0669 1.37541 25.4915 0.949341 26.0178 0.949341C26.5412 0.949341 26.9672 1.37532 26.9672 1.89949Z" fill="white"/>
<path d="M33.6161 2.84974C33.6161 4.42359 32.341 5.69948 30.7679 5.69948C29.1934 5.69948 27.9167 4.42359 27.9167 2.84974C27.9167 1.2759 29.1934 0 30.7679 0C32.341 0 33.6161 1.2759 33.6161 2.84974Z" fill="#FB6D51"/>
<path opacity="0.2" d="M30.7679 1.89949C30.7679 2.42437 30.342 2.84964 29.8171 2.84964C29.2922 2.84964 28.8662 2.42437 28.8662 1.89949C28.8662 1.37541 29.2922 0.949341 29.8171 0.949341C30.342 0.949341 30.7679 1.37532 30.7679 1.89949Z" fill="white"/>
<path d="M39.3171 6.64955C39.3171 8.22401 38.0405 9.5 36.4674 9.5C34.8928 9.5 33.6162 8.2241 33.6162 6.64955C33.6162 5.0757 34.8928 3.7998 36.4674 3.7998C38.0405 3.7998 39.3171 5.07579 39.3171 6.64955Z" fill="#E8563F"/>
<path opacity="0.2" d="M36.4674 5.69956C36.4674 6.22444 36.0415 6.64971 35.518 6.64971C34.9918 6.64971 34.5671 6.22444 34.5671 5.69956C34.5671 5.17539 34.9918 4.75012 35.518 4.75012C36.0415 4.75003 36.4674 5.17539 36.4674 5.69956Z" fill="white"/>
<path d="M41.2175 10.4496C41.2175 12.0241 39.9424 13.3 38.3665 13.3C36.7933 13.3 35.5181 12.0241 35.5181 10.4496C35.5181 8.87575 36.7933 7.59985 38.3665 7.59985C39.9424 7.59985 41.2175 8.87575 41.2175 10.4496Z" fill="#FB6D51"/>
<path opacity="0.2" d="M38.3664 9.50008C38.3664 10.0242 37.9418 10.4495 37.417 10.4495C36.8935 10.4495 36.4675 10.0242 36.4675 9.50008C36.4675 8.9752 36.8935 8.54993 37.417 8.54993C37.9418 8.54993 38.3664 8.9752 38.3664 9.50008Z" fill="white"/>
<path d="M23.1501 11.4005C10.5575 11.4005 0.349609 9.69858 0.349609 7.59985V34.1995C0.349609 36.2989 10.5575 38.0002 23.1501 38.0002C35.742 38.0002 45.9506 36.2989 45.9506 34.1995V7.59985C45.9507 9.69858 35.742 11.4005 23.1501 11.4005Z" fill="#E5E8EC"/>
<path d="M22.2175 37.9973C22.5266 38.0001 22.8377 38.0001 23.1503 38.0001C23.474 38.0001 23.7963 38.0001 24.1172 37.9973C24.1152 37.4739 23.6905 37.0507 23.1671 37.0507C22.6436 37.0507 22.2189 37.4739 22.2175 37.9973Z" fill="#CBD0D8"/>
<path d="M29.8171 36.8418C29.2922 36.8418 28.8662 37.2678 28.8662 37.7927C28.8662 37.8219 28.869 37.8511 28.8717 37.8803C29.5149 37.8525 30.1469 37.819 30.7665 37.7829C30.7624 37.2623 30.3392 36.8418 29.8171 36.8418Z" fill="#CBD0D8"/>
<path d="M35.518 36.3962C34.9918 36.3962 34.5671 36.8222 34.5671 37.3471C34.5671 37.3958 34.5713 37.4432 34.5797 37.4891C35.2284 37.4265 35.8577 37.3582 36.4647 37.2845C36.4313 36.7888 36.0219 36.3962 35.518 36.3962Z" fill="#CBD0D8"/>
<path d="M41.2175 35.5582C40.6926 35.5582 40.2681 35.9841 40.2681 36.5076C40.2681 36.5772 40.275 36.6427 40.2876 36.7067C40.9586 36.58 41.5795 36.4435 42.1448 36.3029C42.05 35.877 41.6713 35.5582 41.2175 35.5582Z" fill="#CBD0D8"/>
<path d="M16.5166 36.8418C15.9945 36.8418 15.5713 37.265 15.5671 37.7857C16.1874 37.8219 16.8194 37.854 17.4625 37.8803C17.4653 37.8525 17.4667 37.8219 17.4667 37.7927C17.4666 37.2678 17.0414 36.8418 16.5166 36.8418Z" fill="#CBD0D8"/>
<path d="M10.8163 36.3962C10.3116 36.3962 9.89957 36.7917 9.86963 37.29C10.4759 37.3623 11.1052 37.4292 11.7546 37.4932C11.7616 37.4459 11.7665 37.3958 11.7665 37.347C11.7665 36.8222 11.3412 36.3962 10.8163 36.3962Z" fill="#CBD0D8"/>
<path d="M5.11705 35.5582C4.6597 35.5582 4.27827 35.8812 4.18774 36.3113C4.75299 36.4519 5.37383 36.5856 6.04421 36.7137C6.05882 36.6469 6.06648 36.5786 6.06648 36.5077C6.0664 35.9841 5.64122 35.5582 5.11705 35.5582Z" fill="#CBD0D8"/>
<path d="M45.9507 9.5041C45.4829 11.5339 35.4622 13.1564 23.1668 13.1564C10.5749 13.1556 0.366924 11.4545 0.366924 9.35583H0.366211V32.3005C0.366211 34.3999 10.5748 36.101 23.1667 36.101C35.7601 36.101 45.9672 34.3998 45.9672 32.3005C45.9672 32.2504 45.9617 32.2017 45.9505 32.153V9.5041H45.9507Z" fill="#FECD57"/>
<path d="M28.8665 29.4202C26.7588 29.4202 15.5589 27.8706 15.5589 27.8706L9.93465 29.3909L11.805 24.4321L9.87549 18.0797L15.5589 21.4542C15.5589 21.4542 25.354 19.9201 28.8665 19.9201C32.3803 19.9201 36.4258 23.0204 36.4258 24.6701C36.4257 26.3198 30.9742 29.4202 28.8665 29.4202Z" fill="#FB6D51"/>
<path d="M30.7679 23.7193C30.7679 24.2456 30.342 24.6702 29.8171 24.6702C29.2922 24.6702 28.8662 24.2456 28.8662 23.7193C28.8662 23.1959 29.2922 22.7699 29.8171 22.7699C30.342 22.7699 30.7679 23.1959 30.7679 23.7193Z" fill="#424953"/>
<g opacity="0.2">
<g opacity="0.2">
<path opacity="0.2" d="M21.2499 11.4005C21.568 11.4005 21.8847 11.399 22.2001 11.397C10.0487 11.3134 0.349609 9.64566 0.349609 7.59985V9.12077C3.86964 10.4629 11.903 11.4005 21.2499 11.4005Z" fill="white"/>
</g>
<g opacity="0.2">
<path opacity="0.2" d="M44.0503 9.12083V34.1996C44.0503 36.2461 34.3513 37.914 22.2 37.9975C22.5153 38.0002 22.832 38.0002 23.1501 38.0002C35.742 38.0002 45.9506 36.299 45.9506 34.1996V7.59991C45.9507 8.14075 45.2727 8.6552 44.0503 9.12083Z" fill="white"/>
</g>
</g>
</svg>
