<svg width="46" height="38" viewBox="0 0 46 38" fill="none" xmlns="http://www.w3.org/2000/svg">
<path d="M45.8204 11.6922L22.8995 0.834862C21.5005 0.176485 19.9491 -0.094211 18.4079 0.0288808C5.05223 1.0952 0.512695 10.4849 0.512695 14.6154H45.8204V11.6922Z" fill="#FFF082"/>
<path d="M45.2144 24.1783C45.5618 24.105 45.8204 23.8164 45.8204 23.4613V11.6923H3.43575C1.8214 11.6923 0.512695 13.001 0.512695 14.6155V35.077C0.512695 36.6914 1.8214 38.0001 3.43575 38.0001H18.3059C18.613 38.0001 18.8868 37.8074 18.9887 37.5177C19.4889 36.0961 20.8431 35.077 22.4358 35.077C24.0285 35.077 25.3826 36.0961 25.8829 37.5177C25.9848 37.8074 26.2585 38.0001 26.5657 38.0001H45.0896C45.4932 38.0001 45.8204 37.6728 45.8204 37.2693V30.6156C45.8204 30.2605 45.5618 29.9719 45.2144 29.8987C43.8908 29.6197 42.8973 28.4451 42.8973 27.0385C42.8973 25.6319 43.8908 24.4573 45.2144 24.1783Z" fill="#FFDC64"/>
<path d="M37.7818 20.4614C38.589 20.4614 39.2434 19.807 39.2434 18.9999C39.2434 18.1927 38.589 17.5383 37.7818 17.5383C36.9747 17.5383 36.3203 18.1927 36.3203 18.9999C36.3203 19.807 36.9747 20.4614 37.7818 20.4614Z" fill="#E1A546"/>
<path d="M18.7818 30.692C19.589 30.692 20.2434 30.0377 20.2434 29.2305C20.2434 28.4233 19.589 27.769 18.7818 27.769C17.9747 27.769 17.3203 28.4233 17.3203 29.2305C17.3203 30.0377 17.9747 30.692 18.7818 30.692Z" fill="#E1A546"/>
<path d="M7.82022 33.6156C9.03099 33.6156 10.0125 32.6341 10.0125 31.4233C10.0125 30.2125 9.03099 29.231 7.82022 29.231C6.60945 29.231 5.62793 30.2125 5.62793 31.4233C5.62793 32.6341 6.60945 33.6156 7.82022 33.6156Z" fill="#FFC850"/>
<path d="M7.82041 29.2308C6.9309 29.2308 6.16899 29.7628 5.8252 30.524C6.10014 30.3998 6.40296 30.3269 6.72427 30.3269C7.93501 30.3269 8.91656 31.3085 8.91656 32.5192C8.91656 32.8405 8.84364 33.1433 8.71949 33.4183C9.48069 33.0745 10.0127 32.3126 10.0127 31.4231C10.0127 30.2123 9.03116 29.2308 7.82041 29.2308Z" fill="#E1A546"/>
<path d="M26.8205 19.7304C28.0312 19.7304 29.0128 18.7489 29.0128 17.5381C29.0128 16.3273 28.0312 15.3458 26.8205 15.3458C25.6097 15.3458 24.6282 16.3273 24.6282 17.5381C24.6282 18.7489 25.6097 19.7304 26.8205 19.7304Z" fill="#FFC850"/>
<path d="M26.8204 15.3463C25.9309 15.3463 25.169 15.8783 24.8252 16.6395C25.1001 16.5153 25.403 16.4424 25.7243 16.4424C26.935 16.4424 27.9166 17.4239 27.9166 18.6347C27.9166 18.956 27.8436 19.2588 27.7195 19.5338C28.4807 19.19 29.0127 18.4281 29.0127 17.5385C29.0128 16.3277 28.0312 15.3463 26.8204 15.3463Z" fill="#E1A546"/>
<path d="M12.2051 24.1157C14.223 24.1157 15.8589 22.4798 15.8589 20.4619C15.8589 18.4439 14.223 16.808 12.2051 16.808C10.1871 16.808 8.55127 18.4439 8.55127 20.4619C8.55127 22.4798 10.1871 24.1157 12.2051 24.1157Z" fill="#FFC850"/>
<path d="M12.2049 16.8077C10.8187 16.8077 9.62723 17.5888 9.00806 18.7263C9.52644 18.4441 10.1116 18.2692 10.7433 18.2692C12.7613 18.2692 14.3971 19.9051 14.3971 21.923C14.3971 22.5548 14.2222 23.14 13.94 23.6583C15.0775 23.0391 15.8586 21.8477 15.8586 20.4615C15.8587 18.4435 14.2229 16.8077 12.2049 16.8077Z" fill="#E1A546"/>
<path d="M31.936 32.8843C33.954 32.8843 35.5899 31.2484 35.5899 29.2305C35.5899 27.2125 33.954 25.5767 31.936 25.5767C29.9181 25.5767 28.2822 27.2125 28.2822 29.2305C28.2822 31.2484 29.9181 32.8843 31.936 32.8843Z" fill="#FFC850"/>
<path d="M31.9358 25.5769C30.5496 25.5769 29.3581 26.358 28.739 27.4955C29.2574 27.2133 29.8426 27.0384 30.4742 27.0384C32.4922 27.0384 34.1281 28.6743 34.1281 30.6922C34.1281 31.324 33.9532 31.9092 33.671 32.4275C34.8085 31.8083 35.5896 30.6169 35.5896 29.2307C35.5896 27.2128 33.9537 25.5769 31.9358 25.5769Z" fill="#E1A546"/>
<path d="M0.512695 15.3463C2.12705 15.3463 3.43575 16.655 3.43575 18.2693V31.4231C3.43575 33.8447 5.39885 35.8077 7.82033 35.8077H17.6857C18.2911 35.8077 18.7819 36.2985 18.7819 36.9039C18.7819 37.5092 18.2911 38 17.6857 38H3.43575C1.8214 38.0001 0.512695 36.6914 0.512695 35.077V15.3463Z" fill="#FFC850"/>
</svg>
