<svg width="43" height="38" viewBox="0 0 43 38" fill="none" xmlns="http://www.w3.org/2000/svg">
<path d="M34.436 31.4748C24.5426 37.4338 17.0638 33.3074 11.3121 25.7359C5.68357 18.327 9.0808 7.41275 17.051 2.61203C25.0213 -2.18868 35.8525 -0.426458 40.1749 8.35095C44.2852 16.6984 42.4059 26.6741 34.436 31.4748V31.4748Z" fill="#94CC4C"/>
<path d="M34.4357 31.4748C36.3356 30.3305 37.8892 28.8927 39.0981 27.2523C37.5677 23.9578 36.2615 19.8688 35.6903 14.9345C34.5073 4.71419 27.4018 1.45943 22.4519 0.439819C20.5812 0.862168 18.7522 1.58728 17.051 2.61199C9.0808 7.4127 5.68357 18.327 11.3121 25.7359C17.0638 33.3073 24.5426 37.4338 34.4357 31.4748V31.4748Z" fill="#83B739"/>
<path d="M12.6461 23.2117C10.9179 20.3427 10.5782 16.8119 11.6895 13.2697C12.7911 9.75859 15.2203 6.66222 18.3538 4.77469C21.5542 2.8474 25.4129 2.11116 28.9409 2.75518C32.5505 3.41414 35.5467 5.45083 37.3773 8.48996C37.5662 8.80354 40.9225 13.8472 39.3755 20.6767C38.5359 24.3827 36.3647 27.3662 33.1335 29.3122C29.1148 31.7328 25.405 32.6459 22.0958 31.2764C14.9719 28.3279 12.8512 23.5527 12.6461 23.2117Z" fill="#CEF48C"/>
<path d="M22.0955 31.2763C25.405 32.6458 29.1148 31.7327 33.1335 29.3121C35.1816 28.0785 36.803 26.4298 37.9301 24.4427C36.9232 21.7143 36.1093 18.5512 35.6905 14.9345C34.9361 8.4167 31.7726 4.73196 28.2968 2.6533C24.9479 2.20391 21.3609 2.96338 18.3538 4.77458C15.2199 6.66211 12.7911 9.75848 11.6895 13.2696C10.5782 16.8118 10.9179 20.3426 12.6461 23.2116C12.8512 23.5526 14.9719 28.3278 22.0955 31.2763V31.2763Z" fill="#C2EF6A"/>
<path d="M26.511 35.157C16.6176 41.1157 9.13871 36.9892 3.38707 29.4178C-2.24148 22.0089 1.15575 11.0946 9.12599 6.29389C17.0962 1.49349 27.9275 3.25539 32.2499 12.0331C36.3602 20.3802 34.4812 30.3563 26.511 35.157V35.157Z" fill="#A3DB63"/>
<path d="M4.7208 26.8935C2.99261 24.0246 2.65295 20.4938 3.76416 16.9515C4.86583 13.4404 7.29497 10.3444 10.4286 8.45683C13.6289 6.52922 17.4876 5.79298 21.0156 6.43699C24.6252 7.09628 27.6214 9.13296 29.452 12.1718C29.641 12.4854 33.4841 17.529 31.4502 24.3585C30.3658 28.0006 28.4394 31.048 25.2082 32.9944C21.1895 35.4146 17.5204 36.2246 14.1705 34.9582C8.52607 32.8246 4.92625 27.2348 4.7208 26.8935V26.8935Z" fill="#CEF48C"/>
<path d="M24.6915 11.3815C21.2679 8.70618 16.2124 7.61914 10.9016 11.7084C9.62051 12.695 9.76808 14.6712 11.183 15.4536L16.1882 18.2208C17.1783 18.7684 18.3855 18.7462 19.3546 18.1623L24.4736 15.0789C25.825 14.2651 25.934 12.3528 24.6915 11.3815V11.3815Z" fill="#F4FFB3"/>
<path d="M29.2916 19.0191C30.0558 23.2963 28.6529 28.2732 22.555 31.0557C21.0841 31.7271 19.4061 30.6725 19.3762 29.0559L19.2703 23.3377C19.2493 22.2064 19.8336 21.1499 20.8026 20.566L25.9217 17.4827C27.2727 16.6688 29.0142 17.4664 29.2916 19.0191V19.0191Z" fill="#F4FFB3"/>
<path d="M9.64912 17.8118C8.23864 17.0319 6.49391 17.9485 6.32885 19.5511C6.0811 21.9545 6.58264 24.4552 7.92506 26.6843C9.2678 28.9134 11.2437 30.5258 13.484 31.4306C14.9781 32.0342 16.6042 30.9202 16.5743 29.3093L16.4646 23.3894C16.4436 22.2582 15.8209 21.2239 14.8305 20.6766L9.64912 17.8118Z" fill="#F4FFB3"/>
</svg>
