<svg width="16" height="16" viewBox="0 0 16 16" fill="none"
    xmlns="http://www.w3.org/2000/svg">
    <mask id="path-1-inside-1_628_3285" fill="white">
        <path fill-rule="evenodd" clip-rule="evenodd" d="M8 3.27663C8.72666 2.4233 9.84 1.8833 11 1.8833C13.0533 1.8833 14.6667 3.49663 14.6667 5.54997C14.6667 8.0679 12.4037 10.1199 8.97511 13.229L8.96666 13.2366L8 14.1166L7.03333 13.2433L7.00701 13.2194C3.58842 10.1128 1.33333 8.06352 1.33333 5.54997C1.33333 3.49663 2.94666 1.8833 4.99999 1.8833C6.16 1.8833 7.27333 2.4233 8 3.27663ZM7.99999 12.3167L8.06666 12.25C11.24 9.37667 13.3333 7.47667 13.3333 5.55C13.3333 4.21667 12.3333 3.21667 11 3.21667C9.97333 3.21667 8.97333 3.87667 8.62666 4.79H7.37999C7.02666 3.87667 6.02666 3.21667 5 3.21667C3.66666 3.21667 2.66666 4.21667 2.66666 5.55C2.66666 7.47667 4.76 9.37667 7.93333 12.25L7.99999 12.3167Z"/>
    </mask>
    <path fill-rule="evenodd" clip-rule="evenodd" d="M8 3.27663C8.72666 2.4233 9.84 1.8833 11 1.8833C13.0533 1.8833 14.6667 3.49663 14.6667 5.54997C14.6667 8.0679 12.4037 10.1199 8.97511 13.229L8.96666 13.2366L8 14.1166L7.03333 13.2433L7.00701 13.2194C3.58842 10.1128 1.33333 8.06352 1.33333 5.54997C1.33333 3.49663 2.94666 1.8833 4.99999 1.8833C6.16 1.8833 7.27333 2.4233 8 3.27663ZM7.99999 12.3167L8.06666 12.25C11.24 9.37667 13.3333 7.47667 13.3333 5.55C13.3333 4.21667 12.3333 3.21667 11 3.21667C9.97333 3.21667 8.97333 3.87667 8.62666 4.79H7.37999C7.02666 3.87667 6.02666 3.21667 5 3.21667C3.66666 3.21667 2.66666 4.21667 2.66666 5.55C2.66666 7.47667 4.76 9.37667 7.93333 12.25L7.99999 12.3167Z" fill="white"/>
    <path d="M8 3.27663L7.23864 3.92497L8 4.81904L8.76135 3.92497L8 3.27663ZM8.97511 13.229L9.64685 13.9698L9.64685 13.9698L8.97511 13.229ZM8.96666 13.2366L8.29492 12.4958L8.29348 12.4972L8.96666 13.2366ZM8 14.1166L7.32962 14.8587L8.00255 15.4666L8.67318 14.8561L8 14.1166ZM7.03333 13.2433L6.36078 13.9834L6.36295 13.9853L7.03333 13.2433ZM7.00701 13.2194L7.67955 12.4793L7.67954 12.4793L7.00701 13.2194ZM8.06666 12.25L7.39546 11.5087L7.37709 11.5254L7.35956 11.5429L8.06666 12.25ZM7.99999 12.3167L7.29289 13.0238L7.99999 13.7309L8.70709 13.0238L7.99999 12.3167ZM8.62666 4.79V5.79H9.31671L9.56158 5.14486L8.62666 4.79ZM7.37999 4.79L6.44735 5.15081L6.69463 5.79H7.37999V4.79ZM7.93333 12.25L8.64043 11.5429L8.6229 11.5254L8.60453 11.5087L7.93333 12.25ZM11 0.883301C9.53721 0.883301 8.1489 1.55937 7.23864 2.6283L8.76135 3.92497C9.30442 3.28724 10.1428 2.8833 11 2.8833V0.883301ZM15.6667 5.54997C15.6667 2.94435 13.6056 0.883301 11 0.883301V2.8833C12.501 2.8833 13.6667 4.04892 13.6667 5.54997H15.6667ZM9.64685 13.9698C11.3412 12.4334 12.8288 11.0877 13.8809 9.8007C14.9444 8.49959 15.6667 7.13715 15.6667 5.54997H13.6667C13.6667 6.48072 13.2574 7.40326 12.3324 8.53491C11.3958 9.68062 10.0377 10.9155 8.30337 12.4882L9.64685 13.9698ZM9.6384 13.9774L9.64685 13.9698L8.30337 12.4882L8.29492 12.4958L9.6384 13.9774ZM8.67318 14.8561L9.63984 13.9761L8.29348 12.4972L7.32681 13.3772L8.67318 14.8561ZM6.36295 13.9853L7.32962 14.8587L8.67037 13.3746L7.70371 12.5013L6.36295 13.9853ZM6.33447 13.9594L6.36079 13.9834L7.70587 12.5032L7.67955 12.4793L6.33447 13.9594ZM0.333328 5.54997C0.333328 7.13437 1.05306 8.49479 2.11335 9.79443C3.16211 11.08 4.64515 12.4243 6.33448 13.9595L7.67954 12.4793C5.95028 10.9079 4.59648 9.6743 3.66305 8.53015C2.74114 7.40011 2.33333 6.47912 2.33333 5.54997H0.333328ZM4.99999 0.883301C2.39438 0.883301 0.333328 2.94435 0.333328 5.54997H2.33333C2.33333 4.04892 3.49895 2.8833 4.99999 2.8833V0.883301ZM8.76135 2.6283C7.85109 1.55937 6.46278 0.883301 4.99999 0.883301V2.8833C5.85721 2.8833 6.69557 3.28724 7.23864 3.92497L8.76135 2.6283ZM7.35956 11.5429L7.2929 11.6096L8.70709 13.0238L8.77376 12.9571L7.35956 11.5429ZM12.3333 5.55C12.3333 6.14423 12.0092 6.86771 11.1302 7.89479C10.261 8.91052 8.99965 10.0562 7.39546 11.5087L8.73786 12.9913C10.307 11.5705 11.679 10.3295 12.6497 9.19521C13.6108 8.07229 14.3333 6.88245 14.3333 5.55H12.3333ZM11 4.21667C11.781 4.21667 12.3333 4.76895 12.3333 5.55H14.3333C14.3333 3.66438 12.8856 2.21667 11 2.21667V4.21667ZM9.56158 5.14486C9.74995 4.64857 10.3572 4.21667 11 4.21667V2.21667C9.5895 2.21667 8.1967 3.10477 7.69174 4.43514L9.56158 5.14486ZM7.37999 5.79H8.62666V3.79H7.37999V5.79ZM5 4.21667C5.64132 4.21667 6.25281 4.64793 6.44735 5.15081L8.31264 4.4292C7.80052 3.10541 6.412 2.21667 5 2.21667V4.21667ZM3.66666 5.55C3.66666 4.76895 4.21895 4.21667 5 4.21667V2.21667C3.11438 2.21667 1.66666 3.66438 1.66666 5.55H3.66666ZM8.60453 11.5087C7.00034 10.0562 5.73902 8.91052 4.86975 7.89479C3.99076 6.86771 3.66666 6.14423 3.66666 5.55H1.66666C1.66666 6.88245 2.38923 8.07229 3.35024 9.19521C4.32097 10.3295 5.69299 11.5705 7.26213 12.9913L8.60453 11.5087ZM8.7071 11.6096L8.64043 11.5429L7.22623 12.9571L7.29289 13.0238L8.7071 11.6096Z" fill="white" mask="url(#path-1-inside-1_628_3285)"/>
    <path d="M8.075 12.9194L8 13L7.925 12.9194C4.355 9.44615 2 7.14945 2 4.82051C2 3.20879 3.125 2 4.625 2C5.78 2 6.905 2.7978 7.3025 3.90183H8.705C9.095 2.7978 10.22 2 11.375 2C12.875 2 14 3.20879 14 4.82051C14 7.14945 11.645 9.44615 8.075 12.9194Z" fill="white"/>
</svg>
