<svg width="32" height="32" viewBox="0 0 32 32" fill="none" xmlns="http://www.w3.org/2000/svg">
<path fill-rule="evenodd" clip-rule="evenodd" d="M16 0C7.16344 0 0 7.16344 0 16C0 24.8366 7.16344 32 16 32C24.8366 32 32 24.8366 32 16C32 7.16344 24.8366 0 16 0ZM12.4821 7.51824C13.3924 7.47682 13.6832 7.46668 16.0007 7.46668H15.9981C18.3163 7.46668 18.6061 7.47682 19.5163 7.51824C20.4248 7.55984 21.0452 7.70366 21.5892 7.91469C22.151 8.13247 22.6257 8.42403 23.1004 8.8987C23.575 9.37301 23.8666 9.84911 24.0853 10.4104C24.295 10.9529 24.439 11.573 24.4817 12.4815C24.5226 13.3917 24.5333 13.6826 24.5333 16.0001C24.5333 18.3176 24.5226 18.6078 24.4817 19.518C24.439 20.4261 24.295 21.0464 24.0853 21.5891C23.8666 22.1502 23.575 22.6263 23.1004 23.1006C22.6262 23.5753 22.1508 23.8676 21.5898 24.0855C21.0468 24.2965 20.426 24.4404 19.5176 24.482C18.6073 24.5234 18.3174 24.5335 15.9997 24.5335C13.6823 24.5335 13.3916 24.5234 12.4814 24.482C11.5731 24.4404 10.9529 24.2965 10.4099 24.0855C9.84903 23.8676 9.37293 23.5753 8.89879 23.1006C8.4243 22.6263 8.13274 22.1502 7.91461 21.589C7.70376 21.0464 7.55994 20.4263 7.51816 19.5178C7.47691 18.6076 7.4666 18.3176 7.4666 16.0001C7.4666 13.6826 7.47727 13.3915 7.51798 12.4813C7.55887 11.5732 7.70287 10.9529 7.91443 10.4102C8.1331 9.84911 8.42466 9.37301 8.89933 8.8987C9.37364 8.4242 9.84974 8.13265 10.411 7.91469C10.9536 7.70366 11.5737 7.55984 12.4821 7.51824Z" fill="#2C2C2C"/>
<path fill-rule="evenodd" clip-rule="evenodd" d="M15.2355 9.00445C15.3841 9.00422 15.544 9.00429 15.7166 9.00437L16.001 9.00445C18.2794 9.00445 18.5495 9.01263 19.4492 9.05352C20.2812 9.09156 20.7328 9.23059 21.0336 9.34739C21.4318 9.50206 21.7157 9.68695 22.0142 9.98562C22.3129 10.2843 22.4978 10.5687 22.6528 10.967C22.7696 11.2674 22.9088 11.719 22.9467 12.551C22.9876 13.4505 22.9964 13.7208 22.9964 15.9981C22.9964 18.2755 22.9876 18.5457 22.9467 19.4453C22.9086 20.2773 22.7696 20.7288 22.6528 21.0293C22.4981 21.4275 22.3129 21.7111 22.0142 22.0096C21.7155 22.3082 21.432 22.4931 21.0336 22.6478C20.7331 22.7651 20.2812 22.9038 19.4492 22.9418C18.5496 22.9827 18.2794 22.9916 16.001 22.9916C13.7224 22.9916 13.4524 22.9827 12.5528 22.9418C11.7208 22.9034 11.2692 22.7644 10.9682 22.6476C10.57 22.4929 10.2856 22.3081 9.98689 22.0094C9.68822 21.7107 9.50333 21.427 9.34831 21.0286C9.23151 20.7281 9.09231 20.2766 9.05444 19.4446C9.01355 18.545 9.00537 18.2748 9.00537 15.996C9.00537 13.7172 9.01355 13.4484 9.05444 12.5488C9.09248 11.7168 9.23151 11.2653 9.34831 10.9645C9.50298 10.5662 9.68822 10.2818 9.98689 9.98313C10.2856 9.68446 10.57 9.49957 10.9682 9.34455C11.269 9.22721 11.7208 9.08854 12.5528 9.05032C13.34 9.01476 13.6451 9.0041 15.2355 9.00232V9.00445ZM20.5561 10.4214C19.9907 10.4214 19.5321 10.8795 19.5321 11.445C19.5321 12.0104 19.9907 12.4691 20.5561 12.4691C21.1214 12.4691 21.5801 12.0104 21.5801 11.445C21.5801 10.8797 21.1214 10.421 20.5561 10.421V10.4214ZM11.6188 16C11.6188 13.58 13.5808 11.6179 16.0009 11.6178C18.421 11.6178 20.3826 13.5799 20.3826 16C20.3826 18.4202 18.4212 20.3814 16.001 20.3814C13.5809 20.3814 11.6188 18.4202 11.6188 16Z" fill="#2C2C2C"/>
<path d="M16.0007 13.1556C17.5716 13.1556 18.8452 14.4291 18.8452 16.0001C18.8452 17.571 17.5716 18.8446 16.0007 18.8446C14.4297 18.8446 13.1562 17.571 13.1562 16.0001C13.1562 14.4291 14.4297 13.1556 16.0007 13.1556Z" fill="#2C2C2C"/>
</svg>
