<svg width="25" height="24" viewBox="0 0 25 24" fill="none" xmlns="http://www.w3.org/2000/svg">
<path fill-rule="evenodd" clip-rule="evenodd" d="M12.3496 2C8.47961 2 5.34961 5.13 5.34961 9C5.34961 14.25 12.3496 22 12.3496 22C12.3496 22 19.3496 14.25 19.3496 9C19.3496 5.13 16.2196 2 12.3496 2ZM7.34961 9C7.34961 6.24 9.58961 4 12.3496 4C15.1096 4 17.3496 6.24 17.3496 9C17.3496 11.88 14.4696 16.19 12.3496 18.88C10.2696 16.21 7.34961 11.85 7.34961 9ZM9.84961 9C9.84961 7.61929 10.9689 6.5 12.3496 6.5C13.2428 6.5 14.0681 6.9765 14.5147 7.75C14.9613 8.5235 14.9613 9.4765 14.5147 10.25C14.0681 11.0235 13.2428 11.5 12.3496 11.5C10.9689 11.5 9.84961 10.3807 9.84961 9Z" fill="black" fill-opacity="0.54"/>
</svg>
