<svg width="25" height="24" viewBox="0 0 25 24" fill="none" xmlns="http://www.w3.org/2000/svg">
<path fill-rule="evenodd" clip-rule="evenodd" d="M15.2864 3.25C15.2864 4.35 14.3864 5.25 13.2864 5.25C12.1864 5.25 11.2864 4.35 11.2864 3.25C11.2864 2.15 12.1864 1.25 13.2864 1.25C14.3864 1.25 15.2864 2.15 15.2864 3.25ZM6.78638 22.75L9.58638 8.65L7.78638 9.35V12.75H5.78638V8.05L10.8364 5.91C11.8064 5.5 12.9264 5.86 13.4864 6.75L14.4864 8.35C15.2864 9.75 16.8864 10.75 18.7864 10.75V12.75C16.5864 12.75 14.5864 11.75 13.2864 10.25L12.6864 13.25L14.7864 15.25V22.75H12.7864V16.75L10.6864 14.75L8.88638 22.75H6.78638Z" fill="white"/>
</svg>
