<svg width="25" height="24" viewBox="0 0 25 24" fill="none" xmlns="http://www.w3.org/2000/svg">
<path fill-rule="evenodd" clip-rule="evenodd" d="M20.8496 5V7.28C21.4396 7.63 21.8496 8.26 21.8496 9V15C21.8496 15.74 21.4396 16.37 20.8496 16.72V19C20.8496 20.1 19.9496 21 18.8496 21H4.84961C3.73961 21 2.84961 20.1 2.84961 19V5C2.84961 3.9 3.73961 3 4.84961 3H18.8496C19.9496 3 20.8496 3.9 20.8496 5ZM12.8496 15H19.8496V9H12.8496V15ZM4.84961 19V5H18.8496V7H12.8496C11.7496 7 10.8496 7.9 10.8496 9V15C10.8496 16.1 11.7496 17 12.8496 17H18.8496V19H4.84961ZM14.3496 12C14.3496 11.1716 15.0212 10.5 15.8496 10.5C16.678 10.5 17.3496 11.1716 17.3496 12C17.3496 12.8284 16.678 13.5 15.8496 13.5C15.0212 13.5 14.3496 12.8284 14.3496 12Z" fill="#6B6B6B"/>
</svg>
