<svg width="32" height="38" viewBox="0 0 32 38" fill="none" xmlns="http://www.w3.org/2000/svg">
<path d="M17.762 0C21.2621 0 31.5126 8.70066 31.5126 19.4334C31.5126 27.9909 24.9961 35.2566 20.5805 37.8502C20.4415 37.9319 20.2956 37.9782 20.1505 37.9939H17.0922C17.1472 37.988 22.5887 28.2132 22.5915 21.4278C22.5961 10.3244 16.8761 0 14.7036 0L17.762 0Z" fill="#C6C1C8"/>
<path d="M8.55835 29.5516C8.55835 32.0976 11.1775 34.4483 12.6376 35.7253C11.8825 34.5186 11.3405 33.0755 11.3405 31.5249C11.3405 27.2883 15.3867 23.8539 16.7683 23.8539C16.8644 23.8539 16.9734 23.8706 17.0931 23.9029C16.1657 23.0079 15.1591 21.4278 14.6338 21.4278C13.3392 21.4278 8.55835 25.582 8.55835 29.5516Z" fill="#C6C1C8"/>
<path d="M14.7037 0C11.2036 0 0.953125 8.70066 0.953125 19.4334C0.953125 27.9909 7.4696 35.2566 11.8852 37.8502C12.5988 38.2693 13.4975 37.7597 13.4975 36.9321C13.4975 36.7183 13.4337 36.5123 13.3179 36.339C10.9852 35.1095 8.36142 32.5915 6.42883 29.7466C4.84939 27.4219 2.96668 23.7456 2.96668 19.4334C2.96668 13.7964 6.15014 9.22309 8.04777 6.9986C11.0769 3.44791 13.9965 2.01341 14.7038 2.01341C15.411 2.01341 18.3307 3.44791 21.3598 6.9986C23.2574 9.22309 26.4409 13.7964 26.4409 19.4334C26.4409 23.7455 24.5581 27.4219 22.9787 29.7467C21.0545 32.5788 18.4522 35.081 16.0769 36.3586C15.9691 36.5277 15.9101 36.7262 15.9101 36.9321C15.9101 37.7596 16.8088 38.2693 17.5223 37.8501C21.938 35.2565 28.4544 27.9909 28.4544 19.4334C28.4544 8.70066 18.2039 0 14.7037 0V0Z" fill="#F1F1F4"/>
<path d="M22.9786 29.7467C24.558 27.4219 26.4408 23.7456 26.4408 19.4334C26.4408 13.7964 23.2573 9.22311 21.3597 6.99863C18.3306 3.44793 15.4109 2.01343 14.7037 2.01343C13.9964 2.01343 11.0768 3.44793 8.04764 6.99863C6.15002 9.22311 2.96655 13.7964 2.96655 19.4334C2.96655 23.7456 4.84933 27.4219 6.42871 29.7467C8.36129 32.5915 10.9851 35.1095 13.3178 36.339C13.253 36.2421 13.1719 36.1555 13.0766 36.0833C11.5094 34.8986 9.61781 32.4696 9.61781 29.6656C9.61781 25.696 13.4091 22.4779 14.7037 22.4779C15.9982 22.4779 19.7895 25.696 19.7895 29.6656C19.7895 32.4696 17.8979 34.8986 16.3307 36.0833C16.229 36.1602 16.1435 36.2538 16.0767 36.3586C18.452 35.0811 21.0543 32.5788 22.9786 29.7467V29.7467Z" fill="#E4936B"/>
<path d="M21.3596 6.99863C18.3305 3.44793 15.4108 2.01343 14.7036 2.01343C14.6822 2.01343 14.6589 2.01476 14.6335 2.01736C15.7257 2.81536 17.0035 3.94809 18.3013 5.46942C20.1989 7.69391 23.3824 12.2672 23.3824 17.9042C23.3824 22.2164 21.4996 25.8927 19.9202 28.2175C19.8448 28.3286 19.7683 28.4391 19.6909 28.549C19.7548 28.9129 19.7895 29.2858 19.7895 29.6655C19.7895 32.4695 17.8979 34.8985 16.3308 36.0832C16.229 36.1601 16.1435 36.2537 16.0767 36.3585C18.452 35.081 21.0543 32.5787 22.9786 29.7467C24.5581 27.4218 26.4408 23.7456 26.4408 19.4333C26.4407 13.7964 23.2573 9.22311 21.3596 6.99863V6.99863Z" fill="#E27D47"/>
<path d="M24.8854 26.3408C24.371 27.4932 23.7862 28.5155 23.2248 29.3767C22.0098 30.2623 20.6771 31.0096 19.5534 31.398C19.6678 30.9755 19.7449 30.5384 19.7751 30.0902C21.4101 29.3935 23.6879 27.7574 24.8854 26.3408V26.3408ZM16.1434 8.87606C19.2008 8.87606 22.4975 10.3308 24.5287 12.8673C24.9735 13.4226 25.3665 14.0285 25.6985 14.6712C25.2217 13.1307 24.5617 11.7345 23.859 10.5233C21.6672 8.72763 18.8277 7.72924 16.1434 7.72924C15.8545 7.72924 15.5648 7.74096 15.2771 7.76419V6.23039C15.5633 6.2102 15.8531 6.19996 16.1434 6.19996C18.1479 6.19996 20.0867 6.68015 21.8748 7.6237C21.6955 7.39852 21.5228 7.18989 21.3597 6.99863C20.9452 6.51272 20.5327 6.06644 20.1277 5.65801C18.842 5.25619 17.5065 5.05306 16.1434 5.05306C15.8535 5.05306 15.5639 5.06241 15.2772 5.08089V2.15266C15.0242 2.05863 14.8292 2.01343 14.7037 2.01343C14.5783 2.01343 14.3832 2.05855 14.1303 2.15266V5.08096C13.8436 5.06248 13.554 5.05313 13.2641 5.05313C11.901 5.05313 10.5655 5.25627 9.27984 5.65809C8.87483 6.06651 8.46232 6.51272 8.04781 6.99863C7.8846 7.18989 7.7119 7.39859 7.53258 7.62384C9.32066 6.68023 11.2595 6.20003 13.2641 6.20003C13.5544 6.20003 13.8442 6.21027 14.1304 6.23046V7.76412C13.8427 7.74089 13.553 7.72916 13.2641 7.72916C10.5799 7.72916 7.74025 8.72748 5.54857 10.5232C4.84587 11.7344 4.18577 13.1305 3.70898 14.6711C4.04104 14.0285 4.43395 13.4226 4.87897 12.8672C6.91004 10.3308 10.2068 8.87606 13.2641 8.87606C13.5533 8.87606 13.8431 8.8892 14.1304 8.91518V10.4524C13.8421 10.421 13.5526 10.4052 13.2641 10.4052C10.691 10.4052 8.28383 11.6384 6.66 13.7886C5.38722 15.474 4.68622 17.6243 4.68622 19.8433C4.68622 22.0623 5.38722 24.2126 6.65992 25.898C7.46712 26.967 8.45839 27.8073 9.60633 28.3955C9.64841 28.417 9.69198 28.4329 9.73599 28.4434C9.80932 28.0615 9.91456 27.6898 10.0452 27.331C9.08799 26.8246 8.25741 26.1104 7.57519 25.2069C6.45181 23.7192 5.83312 21.8144 5.83312 19.8432C5.83312 17.872 6.45181 15.9673 7.57519 14.4796C8.98037 12.6191 11.0539 11.5519 13.2641 11.5519C13.5526 11.5519 13.8425 11.5704 14.1304 11.607V13.1528C13.8445 13.1051 13.555 13.0811 13.2641 13.0811C11.5373 13.0811 9.90855 13.9266 8.79542 15.401C7.87124 16.6255 7.36233 18.2031 7.36233 19.8431C7.36233 21.4835 7.87132 23.0608 8.79557 24.2846C9.32645 24.9874 9.96785 25.5459 10.7027 25.945C10.9015 25.607 11.1191 25.2872 11.3476 24.9887C10.7169 24.6657 10.1659 24.1959 9.71076 23.5933C8.93591 22.5675 8.50923 21.2356 8.50923 19.8431C8.50923 18.4508 8.93599 17.1186 9.71083 16.0921C10.6052 14.9074 11.9004 14.228 13.2642 14.228C13.5559 14.228 13.8459 14.2589 14.1305 14.3202V15.9044C13.8511 15.8071 13.5603 15.7572 13.2642 15.7572C11.4855 15.7572 10.0384 17.5902 10.0384 19.8431C10.0384 21.7195 11.0394 23.3262 12.431 23.7924C12.7836 23.4639 13.1348 23.1891 13.4618 22.9772C12.2707 22.9964 11.1853 21.4533 11.1853 19.8431C11.1853 18.2225 12.1179 16.904 13.2643 16.904C13.5635 16.904 13.859 16.9975 14.1306 17.1765V22.6167C14.3512 22.5255 14.5462 22.4776 14.704 22.4776C14.8618 22.4776 15.0567 22.5255 15.2774 22.6167V17.1765C15.549 16.9975 15.8445 16.904 16.1437 16.904C17.29 16.904 18.2226 18.2225 18.2226 19.8431C18.2226 21.4759 17.053 22.987 15.8415 22.911C16.1975 23.1307 16.5865 23.4286 16.9769 23.7924C18.3685 23.3262 19.3695 21.7195 19.3695 19.8431C19.3695 17.5902 17.9225 15.7572 16.1437 15.7572C15.8477 15.7572 15.5568 15.8071 15.2775 15.9044V14.3202C15.5621 14.259 15.8521 14.228 16.1437 14.228C17.5075 14.228 18.8027 14.9074 19.697 16.092C20.472 17.1186 20.8987 18.4509 20.8987 19.8431C20.8987 21.2356 20.472 22.5675 19.6972 23.5933C19.2421 24.1959 18.6911 24.6657 18.0604 24.9887C18.289 25.2873 18.5064 25.607 18.7053 25.9451C19.4402 25.5458 20.0816 24.9873 20.6124 24.2846C21.5366 23.0608 22.0456 21.4835 22.0456 19.8431C22.0456 18.203 21.5366 16.6255 20.6124 15.4009C19.4993 13.9266 17.8705 13.0811 16.1438 13.0811C15.853 13.0811 15.5634 13.1051 15.2775 13.1528V11.607C15.5654 11.5704 15.8553 11.5519 16.1438 11.5519C18.354 11.5519 20.4276 12.619 21.8328 14.4796C22.9561 15.9672 23.5748 17.872 23.5748 19.8432C23.5748 21.8144 22.9561 23.7191 21.8327 25.2069C21.1505 26.1104 20.32 26.8246 19.3628 27.331C19.4934 27.6898 19.5986 28.0615 19.672 28.4434C19.716 28.4329 19.7595 28.4171 19.8016 28.3955C20.9496 27.8073 21.9408 26.9671 22.7479 25.898C24.0207 24.2126 24.7217 22.0623 24.7217 19.8433C24.7217 17.6243 24.0207 15.474 22.7479 13.7886C21.1241 11.6384 18.717 10.4052 16.1438 10.4052C15.8553 10.4052 15.5658 10.421 15.2775 10.4524V8.91518C15.5645 8.88913 15.8543 8.87606 16.1434 8.87606V8.87606ZM9.63223 30.0902C7.99734 29.3935 5.71957 27.7575 4.52198 26.3408C5.03639 27.4929 5.62093 28.5149 6.18225 29.3761C7.40114 30.2652 8.73693 31.0148 9.85415 31.3985C9.73963 30.9759 9.66251 30.5385 9.63223 30.0902V30.0902Z" fill="#E27D47"/>
<path d="M25.6987 14.6712C25.3666 14.0285 24.9737 13.4225 24.5288 12.8673C23.7008 11.8333 22.6625 10.9791 21.5158 10.3299C21.2136 9.71419 20.8917 9.13469 20.5641 8.59549C21.7454 9.06277 22.8685 9.71159 23.8592 10.5232C24.5619 11.7345 25.2219 13.1306 25.6987 14.6712V14.6712ZM24.8855 26.3409C23.6879 27.7575 21.4102 29.3936 19.7752 30.0902C19.7367 30.5535 19.7002 30.8327 19.5535 31.398C20.6772 31.0096 22.0099 30.2623 23.2249 29.3767C23.7863 28.5154 24.371 27.4933 24.8855 26.3409V26.3409ZM22.7477 25.8981C24.0204 24.2127 24.7214 22.0624 24.7214 19.8434C24.7214 17.6972 24.0656 15.6152 22.871 13.9559C23.1899 15.1949 23.3825 16.5174 23.3825 17.9043C23.3825 17.9211 23.3825 17.938 23.3825 17.9548C23.5092 18.5693 23.5745 19.2028 23.5745 19.8433C23.5745 21.8144 22.9558 23.7193 21.8324 25.207C21.6865 25.4002 21.5337 25.5849 21.3744 25.7606C20.9022 26.6898 20.3974 27.5153 19.9204 28.2176C19.8794 28.2779 19.8381 28.338 19.7966 28.3979C19.7981 28.3971 19.7998 28.3964 19.8013 28.3956C20.9492 27.8075 21.9405 26.9671 22.7477 25.8981V25.8981ZM21.3598 6.99867C20.9453 6.51276 20.5327 6.06649 20.1277 5.65806C19.4509 5.44646 18.7601 5.29001 18.0588 5.1893C18.1396 5.28118 18.2205 5.37455 18.3014 5.46947C18.5775 5.79299 18.8806 6.16616 19.1973 6.58513C20.1185 6.8227 21.0142 7.16953 21.875 7.62374C21.6956 7.39856 21.523 7.18993 21.3598 6.99867ZM14.6901 2.0137C14.6868 2.01377 14.6836 2.01385 14.6803 2.014C14.6799 2.014 14.6796 2.014 14.6792 2.01407C14.6756 2.01422 14.6719 2.01444 14.6682 2.01466C14.6669 2.01474 14.6657 2.01481 14.6643 2.01489C14.6617 2.01503 14.6591 2.01526 14.6563 2.01548C14.655 2.01555 14.6537 2.0157 14.6522 2.01578C14.6488 2.01607 14.6452 2.01637 14.6416 2.01674C14.64 2.01689 14.6383 2.01704 14.6367 2.01726C14.6356 2.01734 14.6346 2.01748 14.6335 2.01756C14.8417 2.16963 15.0566 2.33388 15.277 2.51067V2.15278C15.0324 2.06179 14.8419 2.01659 14.7162 2.0137C14.7158 2.0137 14.7153 2.0137 14.715 2.0137C14.7111 2.01362 14.7073 2.01355 14.7036 2.01355C14.7002 2.01355 14.6966 2.01362 14.6931 2.0137C14.6923 2.01362 14.6911 2.0137 14.6901 2.0137V2.0137Z" fill="#DD6938"/>
<path d="M14.7036 20.4682C15.2751 20.4682 15.7383 20.005 15.7383 19.4335C15.7383 18.8621 15.2751 18.3989 14.7036 18.3989C14.1322 18.3989 13.6689 18.8621 13.6689 19.4335C13.6689 20.005 14.1322 20.4682 14.7036 20.4682Z" fill="white"/>
</svg>
