<svg width="24" height="24" viewBox="0 0 24 24" fill="none" xmlns="http://www.w3.org/2000/svg">
<path d="M0.512695 21.8886L2.35305 10.0644C2.44993 9.44222 2.75066 8.87685 3.20173 8.469C3.65279 8.06115 4.2249 7.83727 4.81622 7.83722H18.7092C19.3005 7.83727 19.8726 8.06115 20.3237 8.469C20.7747 8.87685 21.0755 9.44222 21.1723 10.0644L23.0127 21.8886H0.512695Z" fill="#F45858"/>
<path d="M2.01318 21.8885H21.5118V23.9999H2.01318V21.8885Z" fill="#6B6B6B"/>
<path d="M0.512695 0V0.98278C0.512695 1.98318 0.88526 2.9426 1.54843 3.64999C2.2116 4.35738 3.11105 4.75478 4.04892 4.75478H19.4765C20.4143 4.75478 21.3138 4.35738 21.977 3.64999C22.6401 2.9426 23.0127 1.98318 23.0127 0.98278V0H0.512695Z" fill="#F45858"/>
<path d="M10.1531 4.75473H13.3722V7.83723H10.1531V4.75473Z" fill="#F2DA30"/>
<path d="M11.7626 19.8414C14.3403 19.8414 16.4298 17.6125 16.4298 14.863C16.4298 12.1135 14.3403 9.88461 11.7626 9.88461C9.18503 9.88461 7.09546 12.1135 7.09546 14.863C7.09546 17.6125 9.18503 19.8414 11.7626 19.8414Z" fill="#DFEEF4"/>
<path d="M12.1039 9.89933V10.8727C12.1039 10.9693 12.0679 11.0619 12.0039 11.1301C11.9399 11.1984 11.8531 11.2367 11.7626 11.2367C11.6721 11.2367 11.5853 11.1984 11.5213 11.1301C11.4573 11.0619 11.4214 10.9693 11.4214 10.8727V9.89933C11.5345 9.88893 11.6476 9.88477 11.7626 9.88477C11.8777 9.88477 11.9908 9.88893 12.1039 9.89933Z" fill="#6B6B6B"/>
<path d="M12.1039 18.8534V19.8268C11.9908 19.8372 11.8777 19.8414 11.7626 19.8414C11.6476 19.8414 11.5345 19.8372 11.4214 19.8268V18.8534C11.4214 18.7568 11.4573 18.6643 11.5213 18.596C11.5853 18.5277 11.6721 18.4894 11.7626 18.4894C11.8531 18.4894 11.9399 18.5277 12.0039 18.596C12.0679 18.6643 12.1039 18.7568 12.1039 18.8534Z" fill="#6B6B6B"/>
<path d="M16.4308 14.8622C16.4308 14.9849 16.4269 15.1055 16.4171 15.2262H15.5026C15.4121 15.2262 15.3253 15.1878 15.2613 15.1195C15.1973 15.0513 15.1614 14.9587 15.1614 14.8622C15.1614 14.7656 15.1973 14.673 15.2613 14.6048C15.3253 14.5365 15.4121 14.4982 15.5026 14.4982H16.4171C16.4269 14.6188 16.4308 14.7394 16.4308 14.8622Z" fill="#6B6B6B"/>
<path d="M8.36389 14.8622C8.364 14.91 8.35524 14.9574 8.33813 15.0016C8.32102 15.0458 8.29588 15.086 8.26418 15.1198C8.23247 15.1536 8.19481 15.1804 8.15336 15.1987C8.11192 15.2169 8.0675 15.2263 8.02265 15.2262H7.10813C7.09838 15.1055 7.09448 14.9849 7.09448 14.8622C7.09448 14.7394 7.09838 14.6188 7.10813 14.4982H8.02265C8.11313 14.4983 8.19986 14.5367 8.26383 14.6049C8.32781 14.6731 8.36379 14.7657 8.36389 14.8622V14.8622Z" fill="#6B6B6B"/>
<path d="M14.0351 12.4388C14.0035 12.405 13.9659 12.3781 13.9245 12.3598C13.8831 12.3415 13.8387 12.3321 13.7939 12.3321C13.7491 12.3321 13.7048 12.3415 13.6634 12.3598C13.622 12.3781 13.5844 12.405 13.5527 12.4388L12.2086 13.8721C12.0697 13.7993 11.9172 13.7611 11.7625 13.7602C11.5581 13.7602 11.3583 13.8248 11.1883 13.946C11.0184 14.0671 10.8859 14.2393 10.8077 14.4407C10.7295 14.6421 10.709 14.8638 10.7489 15.0776C10.7887 15.2915 10.8872 15.4879 11.0317 15.6421C11.1762 15.7962 11.3604 15.9012 11.5609 15.9438C11.7613 15.9863 11.9691 15.9645 12.158 15.881C12.3468 15.7976 12.5082 15.6563 12.6218 15.475C12.7353 15.2937 12.7959 15.0806 12.7959 14.8626C12.7951 14.6975 12.7591 14.5349 12.6906 14.3869L14.0347 12.953C14.0987 12.8848 14.1347 12.7924 14.1348 12.696C14.1348 12.5995 14.099 12.507 14.0351 12.4388V12.4388ZM11.7625 15.2378C11.6931 15.2378 11.6252 15.2158 11.5675 15.1747C11.5098 15.1335 11.4648 15.0751 11.4382 15.0067C11.4116 14.9383 11.4047 14.863 11.4182 14.7904C11.4318 14.7177 11.4652 14.651 11.5143 14.5987C11.5634 14.5463 11.6259 14.5106 11.694 14.4962C11.7621 14.4817 11.8327 14.4892 11.8968 14.5175C11.9609 14.5458 12.0157 14.5938 12.0543 14.6554C12.0929 14.717 12.1135 14.7893 12.1135 14.8634C12.1135 14.9627 12.0765 15.0579 12.0107 15.1281C11.9448 15.1983 11.8556 15.2378 11.7625 15.2378V15.2378Z" fill="#6B6B6B"/>
</svg>
