<svg width="37" height="38" viewBox="0 0 37 38" fill="none" xmlns="http://www.w3.org/2000/svg">
<path d="M26.7255 0C24.8176 0 23.271 1.54669 23.271 3.45455V8.63636H30.1801V3.45455C30.1801 1.54669 28.6335 0 26.7255 0ZM26.7255 5.18182C25.7716 5.18182 24.9983 4.40852 24.9983 3.45455C24.9983 2.50057 25.7716 1.72727 26.7255 1.72727C27.6795 1.72727 28.4528 2.50057 28.4528 3.45455C28.4528 4.40852 27.6795 5.18182 26.7255 5.18182Z" fill="#DEEEFF"/>
<path d="M24.9983 3.45455C24.9983 2.50057 25.7716 1.72727 26.7255 1.72727C26.8746 1.72727 27.0185 1.74817 27.1564 1.78367C27.4605 1.23448 27.91 0.777445 28.4528 0.463341C27.9446 0.169186 27.355 0 26.7255 0C24.8177 0 23.271 1.54669 23.271 3.45455V8.63636H26.7255V5.18182C25.7717 5.18182 24.9983 4.40852 24.9983 3.45455Z" fill="#D3DCFB"/>
<path d="M3.74097 8.63639C3.74097 7.68242 4.51427 6.90912 5.46824 6.90912H31.3773C32.3313 6.90912 33.1046 7.68242 33.1046 8.63639C33.1046 9.59036 32.3313 10.3637 31.3773 10.3637L18.4228 12.9546L5.46824 10.3637C4.51427 10.3637 3.74097 9.59036 3.74097 8.63639Z" fill="white"/>
<path d="M10.6501 10.3637C9.69609 10.3637 8.92279 9.59036 8.92279 8.63639C8.92279 7.68242 9.69609 6.90912 10.6501 6.90912H5.46824C4.51427 6.90912 3.74097 7.68242 3.74097 8.63639C3.74097 9.59036 4.51427 10.3637 5.46824 10.3637L10.6501 11.4V10.3637Z" fill="#DEEEFF"/>
<path d="M2.01367 15.5455H34.8319V36.2728H2.01367V15.5455Z" fill="#FFDD40"/>
<path d="M2.01367 15.5455H7.19549V36.2728H2.01367V15.5455Z" fill="#FFC839"/>
<path d="M31.3773 10.3636H5.46824C4.51427 10.3636 3.74097 11.1369 3.74097 12.0909V15.5455H33.1046V12.0909C33.1046 11.1369 32.3313 10.3636 31.3773 10.3636Z" fill="#DEEEFF"/>
<path d="M10.6501 10.3636H5.46824C4.51427 10.3636 3.74097 11.1369 3.74097 12.0909V15.5455H8.92279V12.0909C8.92279 11.1369 9.69609 10.3636 10.6501 10.3636Z" fill="#D3DCFB"/>
<path d="M0.286377 15.5454C0.286377 14.5914 1.05968 13.8181 2.01365 13.8181H34.8318C35.7858 13.8181 36.5591 14.5914 36.5591 15.5454C36.5591 16.4994 35.7858 17.2727 34.8318 17.2727H2.01365C1.05968 17.2727 0.286377 16.4994 0.286377 15.5454Z" fill="#FEE884"/>
<path d="M5.4682 15.5454C5.4682 14.5914 6.2415 13.8181 7.19547 13.8181H2.01365C1.05968 13.8181 0.286377 14.5914 0.286377 15.5454C0.286377 16.4994 1.05968 17.2727 2.01365 17.2727H7.19547C6.2415 17.2727 5.4682 16.4994 5.4682 15.5454Z" fill="#FFDD40"/>
<path d="M0.286377 20.7273C0.286377 19.7733 1.05968 19 2.01365 19H34.8318C35.7858 19 36.5591 19.7733 36.5591 20.7273C36.5591 21.6812 35.7858 22.4545 34.8318 22.4545H2.01365C1.05968 22.4545 0.286377 21.6812 0.286377 20.7273Z" fill="#FEE884"/>
<path d="M5.4682 20.7273C5.4682 19.7733 6.2415 19 7.19547 19H2.01365C1.05968 19 0.286377 19.7733 0.286377 20.7273C0.286377 21.6812 1.05968 22.4545 2.01365 22.4545H7.19547C6.2415 22.4545 5.4682 21.6812 5.4682 20.7273Z" fill="#FFDD40"/>
<path d="M0.286377 36.2728C0.286377 35.3188 1.05968 34.5455 2.01365 34.5455H34.8318C35.7858 34.5455 36.5591 35.3188 36.5591 36.2728C36.5591 37.2268 35.7858 38.0001 34.8318 38.0001H2.01365C1.05968 38.0001 0.286377 37.2268 0.286377 36.2728Z" fill="#FEE884"/>
<path d="M5.4682 36.2728C5.4682 35.3188 6.2415 34.5455 7.19547 34.5455H2.01365C1.05968 34.5455 0.286377 35.3188 0.286377 36.2728C0.286377 37.2268 1.05968 38.0001 2.01365 38.0001H7.19547C6.2415 38.0001 5.4682 37.2268 5.4682 36.2728Z" fill="#FFDD40"/>
<path d="M15.0197 28.5026L12.0208 30.624C11.7757 30.7974 11.4439 30.7836 11.2153 30.589C10.8042 30.2387 10.2469 29.5675 10.2469 28.5026C10.2469 27.4376 10.8042 26.7665 11.2153 26.4162C11.4439 26.2215 11.7757 26.2078 12.0208 26.3811L15.0197 28.5026Z" fill="#FFC839"/>
<path d="M10.2469 28.5026C10.2469 29.5676 10.8042 30.2387 11.2153 30.589C11.4439 30.7837 11.7757 30.7974 12.0208 30.6241L14.0377 29.1973C11.9606 29.2454 10.2795 27.4845 11.2153 26.4163C10.8042 26.7665 10.2469 27.4376 10.2469 28.5026Z" fill="#FFB332"/>
<path d="M26.391 28.9794C26.6676 28.7195 26.6676 28.2805 26.391 28.0205C25.3812 27.0717 22.8826 25.0455 19.9602 25.0455C17.0377 25.0455 14.5392 27.0717 13.5294 28.0206C13.2527 28.2806 13.2527 28.7196 13.5294 28.9795C14.5392 29.9283 17.0378 31.9546 19.9602 31.9546C22.8825 31.9546 25.3812 29.9283 26.391 28.9794Z" fill="#FFC839"/>
<path d="M13.5294 28.0206C13.2527 28.2805 13.2527 28.7195 13.5294 28.9794C14.5392 29.9282 17.0378 31.9545 19.9602 31.9545C21.6705 31.9545 23.2356 31.2604 24.4421 30.4944C19.1172 30.4944 15.1602 26.7159 15.159 26.7149C14.4548 27.1932 13.8947 27.6773 13.5294 28.0206V28.0206Z" fill="#FFB332"/>
<path d="M20.3784 28.9961C20.3784 29.8232 20.9438 30.5155 21.72 30.6924C21.9422 30.7431 22.175 30.674 22.3364 30.5131L23.5024 29.3512C23.699 29.1553 23.699 28.8367 23.5024 28.6408L22.3364 27.4789C22.1749 27.318 21.9422 27.2489 21.72 27.2996C20.9438 27.4767 20.3784 28.169 20.3784 28.9961V28.9961Z" fill="#FFB332"/>
<path d="M21.5125 27.361C20.845 27.6045 20.3783 28.2446 20.3783 28.9961C20.3783 29.8232 20.9436 30.5155 21.7199 30.6924C21.9421 30.7431 22.1748 30.674 22.3362 30.5131L22.5174 30.3325C20.991 29.5161 21.5122 27.3626 21.5125 27.361Z" fill="#FF9433"/>
</svg>
