<svg width="33" height="33" viewBox="0 0 33 33" fill="none" xmlns="http://www.w3.org/2000/svg">
<path fill-rule="evenodd" clip-rule="evenodd" d="M21.8449 0.93335H12.0213C3.0559 0.93335 0.933105 3.05614 0.933105 12.0216V21.8451C0.933105 30.8106 3.0559 32.9333 12.0213 32.9333H21.8449C30.8103 32.9333 32.9331 30.8106 32.9331 21.8451V12.0216C32.9331 3.05614 30.8103 0.93335 21.8449 0.93335ZM26.4293 11.0957C27.1294 11.0957 27.2874 11.457 27.1294 11.9539C26.8827 13.0925 24.8339 16.1128 24.1994 17.0483C24.0788 17.2261 24.0093 17.3286 24.0129 17.3286C23.7645 17.7351 23.6742 17.9157 24.0129 18.3674C24.1354 18.5344 24.395 18.7892 24.6918 19.0804C24.997 19.3799 25.3415 19.7179 25.6163 20.0385C26.6099 21.1677 27.3778 22.1162 27.581 22.7711C27.7617 23.426 27.4455 23.7647 26.768 23.7647H24.442C23.8256 23.7647 23.5078 23.4107 22.8306 22.6563C22.5403 22.3328 22.1839 21.9357 21.7095 21.4613C20.3319 20.1289 19.7222 19.9482 19.3834 19.9482C18.9092 19.9482 18.7737 20.0611 18.7737 20.7386V22.8388C18.7737 23.4034 18.593 23.7421 17.1025 23.7421C14.641 23.7421 11.9085 22.2517 9.98892 19.474C7.09831 15.409 6.3079 12.3378 6.3079 11.728C6.3079 11.3893 6.42082 11.0731 7.0983 11.0731H9.44693C10.0341 11.0731 10.2599 11.3215 10.4857 11.9764C11.6375 15.2961 13.557 18.2093 14.3474 18.2093C14.641 18.2093 14.7765 18.0738 14.7765 17.3286V13.896C14.7207 12.9203 14.3811 12.4952 14.1292 12.18C13.973 11.9845 13.8506 11.8312 13.8506 11.6151C13.8506 11.3441 14.0764 11.0731 14.4378 11.0731H18.0962C18.593 11.0731 18.7737 11.3441 18.7737 11.9313V16.5608C18.7737 17.0576 18.9769 17.2383 19.135 17.2383C19.4286 17.2383 19.677 17.0576 20.219 16.5156C21.8901 14.6412 23.087 11.7506 23.087 11.7506C23.2451 11.4119 23.5161 11.0957 24.1032 11.0957H26.4293Z" fill="#2C2C2C"/>
</svg>
