<svg width="35" height="24" viewBox="0 0 35 24" fill="none" xmlns="http://www.w3.org/2000/svg">
<path d="M22.3101 0C15.6265 0 10.3101 5.39242 10.3101 12C10.3101 18.6835 15.7025 24 22.3101 24C28.9176 24 34.3101 18.6076 34.3101 12C34.386 5.39242 28.9176 0 22.3101 0ZM22.3101 16.481C19.8797 16.481 17.829 14.4304 17.829 12C17.829 9.56962 19.8797 7.51901 22.3101 7.51901C24.7404 7.51901 26.7911 9.56962 26.7911 12C26.7911 14.4304 24.8164 16.481 22.3101 16.481Z" fill="#8B3FFD"/>
<path d="M10.3102 3.49377V20.9621H5.98105L0.512695 3.49377H10.3102Z" fill="#8B3FFD"/>
</svg>
