<?xml version="1.0" encoding="UTF-8"?>
<!DOCTYPE svg PUBLIC "-//W3C//DTD SVG 1.1//EN" "http://www.w3.org/Graphics/SVG/1.1/DTD/svg11.dtd">
<!-- Creator: CorelDRAW 2020 (64-Bit) -->
<svg xmlns="http://www.w3.org/2000/svg" xml:space="preserve" width="11.4045mm" height="2.6365mm" version="1.1" style="shape-rendering:geometricPrecision; text-rendering:geometricPrecision; image-rendering:optimizeQuality; fill-rule:evenodd; clip-rule:evenodd"
viewBox="0 0 132.05 30.53"
 xmlns:xlink="http://www.w3.org/1999/xlink"
 xmlns:xodm="http://www.corel.com/coreldraw/odm/2003">
 <defs>
  <style type="text/css">
   <![CDATA[
    .str0 {stroke:#2B2A29;stroke-width:1.22;stroke-linejoin:round;stroke-miterlimit:22.9256}
    .fil1 {fill:#FEFEFE}
    .fil0 {fill:#FA6A0A}
   ]]>
  </style>
 </defs>
 <g id="Слой_x0020_1">
  <metadata id="CorelCorpID_0Corel-Layer"/>
  <g id="_2142979090384">
   <path class="fil0" d="M127.57 30.3c-0.15,-1.08 -0.85,-2.69 -1.18,-3.76l-2.42 -7.24c-0.79,-2.38 -1.09,-2.19 -0.16,-3.43l7.3 -9.56c0.36,-0.47 0.73,-0.79 0.93,-1.38 -2.63,-0.01 -6.52,-0.15 -9,0.09 -0.24,2.68 -1.11,5.8 -1.56,8.38 -0.48,2.74 -1.03,5.43 -1.57,8.23 -0.08,0.41 -0.3,1.87 -0.49,2.12l-10.55 6.53 18.69 0.02z"/>
   <polygon class="fil0" points="9.82,0.15 122.53,0 117.36,23.21 107.32,28.21 108.09,23.72 108.14,23.47 24.05,23.42 24.66,28.27 14.42,23.25 "/>
   <polygon class="fil0" points="8.75,5.21 12.6,23.93 23.17,30.43 4.77,30.53 9.12,17.16 -0,5.18 "/>
  </g>
  <path class="fil1 str0" d="M64.34 21.83l0.77 0.05 0.07 -17.7 2.49 14.3 1.3 0.01 2.54 -14.41c0.2,2.04 0.05,12.28 0.05,15.83 -0,1.37 -0.23,1.81 0.3,1.97l0.39 -0.1 -0.04 -20.11 -0.98 0.03c-0.84,3.74 -1.41,8.2 -2.14,12.11l-0.71 3.75 -2.93 -15.89 -0.98 0.03c-0.34,3.01 0.36,18.65 -0.12,20.13z"/>
  <path class="fil1 str0" d="M92.68 20.91l-0.01 0.82c0.92,0.19 0.72,0.41 0.71,-1.68 -0.02,-4.4 -0.16,-13.07 0.06,-16.58l3.86 18.38c0.66,0.07 1.03,0.25 1.08,-0.36 -0.04,-3.3 0,-6.64 -0,-9.94 0,-1.3 0.2,-9.22 -0.13,-9.79l-0.43 -0c-0.2,0.34 -0.14,0.47 -0.14,0.99 0.01,4.28 0.17,14.25 -0.07,17.2l-3.87 -18.29 -1.04 0.04 0 19.22z"/>
  <path class="fil1 str0" d="M52.54 2.35c4.53,-0.11 3.9,1.06 3.9,5.15 0,5.11 0.41,5.2 -3.95,5.18l0.05 -10.33zm2.41 11.03c1.29,-0.17 2.19,-1.27 2.2,-2.7 0.02,-8.79 0.55,-9.02 -5.26,-9.03 -0.2,0.8 -0.22,19 -0.03,20.22l0.63 -0.05 -0 -8.45 1.65 0.04c0.67,1.08 2.03,7.74 2.74,8.5l0.43 -0.13c0.2,-0.58 -2.08,-7.02 -2.36,-8.4z"/>
  <path class="fil1 str0" d="M39.02 9.96c0.01,3.13 -0.07,6.56 0.08,9.66 0.16,3.18 5.03,3.06 5.03,-0.15 0,-5.9 0.08,-11.8 -0.08,-17.7l-0.6 -0.01c-0.19,5.56 -0.06,11.55 -0.01,17.14 0.01,1.49 -0.35,2.41 -1.98,2.34 -1.6,-0.06 -1.65,-1.23 -1.66,-2.63l-0.21 -16.84 -0.63 -0.01 0.06 8.2z"/>
  <path class="fil1 str0" d="M31.71 11.26c-0.4,0 -0.8,0 -1.21,-0 -0.15,-0 -0.44,-0.01 -0.57,-0l-0.59 0.14 0.01 0.43 0.72 0.13c0.29,0.01 0.65,-0.01 0.94,-0.01 0.02,0.73 0.07,7.66 -0.12,8.18 -0.19,0.53 -0.93,1.07 -1.68,1.1 -2.06,0.08 -1.99,-1.68 -1.99,-3.5l0 -11.1c-0,-1.88 -0.45,-3.73 1.36,-4.23 0.89,-0.24 1.55,0.06 2,0.55 0.56,0.62 0.44,1.26 0.44,2.23 -0,0.43 -0.02,0.89 -0.02,1.32 0,0.38 -0.06,1.29 0.56,0.77 0.12,-0.1 1.26,-5.78 -2.49,-5.64 -1.6,0.06 -2.58,1.07 -2.56,2.84 0.03,3.69 0.01,7.4 0,11.1 -0,1.53 -0.4,3.9 0.36,5.09 0.67,1.05 2.37,1.92 3.85,0.74 1.33,-1.06 0.97,-2.57 0.97,-4.53 0.01,-1.85 0.06,-3.77 0.01,-5.61z"/>
  <path class="fil1 str0" d="M82.63 3.06c0.33,1.28 1.96,13.04 1.86,14.03l-3.65 0.01c-0.09,-0.76 1.51,-12.93 1.79,-14.04zm-3.23 18.89l0.54 -0.11 0.72 -4.07 3.98 0.01c0.47,2.05 0.31,4.19 1.21,4.05 0.02,-0.04 0.04,-0.14 0.04,-0.12 0,0.02 0.03,-0.09 0.04,-0.12l-2.74 -19.94 -1.05 -0.01 -2.74 20.3z"/>
  <path class="fil1 str0" d="M106.36 21.8l-0 -20.05 -0.65 -0.07c-0.03,3.38 -0.01,6.77 -0,10.14 0,1.92 -0.25,8.66 0.08,10.02l0.58 -0.05z"/>
 </g>
</svg>
